<?xml version="1.0" encoding="UTF-8" standalone="no"?>
<!DOCTYPE svg PUBLIC "-//W3C//DTD SVG 1.1//EN" "http://www.w3.org/Graphics/SVG/1.1/DTD/svg11.dtd">
<svg width="100%" height="100%" viewBox="0 0 927 479" version="1.1" xmlns="http://www.w3.org/2000/svg" xmlns:xlink="http://www.w3.org/1999/xlink" xml:space="preserve" xmlns:serif="http://www.serif.com/" style="fill-rule:evenodd;clip-rule:evenodd;stroke-linejoin:round;stroke-miterlimit:2;">
    <g transform="matrix(1.01717,0,0,1,-68.63,-82.7625)">
        <rect x="67.316" y="527.397" width="232.783" height="31.527"/>
    </g>
    <g transform="matrix(0.62519,0,0,0.734001,-57.1591,98.9475)">
        <g transform="matrix(284,0,0,284,84.8352,426.35)">
            <path d="M0.258,-0.079L0.271,-0.001C0.246,0.004 0.224,0.007 0.204,0.007C0.172,0.007 0.147,0.002 0.13,-0.008C0.112,-0.018 0.1,-0.032 0.093,-0.048C0.086,-0.065 0.082,-0.099 0.082,-0.152L0.082,-0.45L0.018,-0.45L0.018,-0.519L0.082,-0.519L0.082,-0.647L0.169,-0.7L0.169,-0.519L0.258,-0.519L0.258,-0.45L0.169,-0.45L0.169,-0.147C0.169,-0.122 0.171,-0.106 0.174,-0.099C0.177,-0.091 0.182,-0.086 0.189,-0.082C0.196,-0.077 0.206,-0.075 0.219,-0.075C0.229,-0.075 0.242,-0.076 0.258,-0.079Z" style="fill-rule:nonzero;"/>
        </g>
        <g transform="matrix(284,0,0,284,163.739,426.35)">
            <path d="M0.066,-0L0.066,-0.716L0.154,-0.716L0.154,-0.459C0.195,-0.507 0.247,-0.53 0.309,-0.53C0.347,-0.53 0.381,-0.523 0.409,-0.508C0.438,-0.492 0.458,-0.472 0.47,-0.445C0.482,-0.418 0.488,-0.379 0.488,-0.329L0.488,-0L0.4,-0L0.4,-0.329C0.4,-0.373 0.391,-0.405 0.372,-0.425C0.353,-0.445 0.326,-0.455 0.291,-0.455C0.265,-0.455 0.24,-0.448 0.218,-0.434C0.195,-0.421 0.178,-0.403 0.168,-0.379C0.159,-0.356 0.154,-0.324 0.154,-0.284L0.154,-0L0.066,-0Z" style="fill-rule:nonzero;"/>
        </g>
        <g transform="matrix(284,0,0,284,321.687,426.35)">
            <path d="M0.421,-0.167L0.512,-0.156C0.497,-0.103 0.471,-0.062 0.432,-0.032C0.393,-0.003 0.344,0.012 0.284,0.012C0.208,0.012 0.148,-0.012 0.103,-0.058C0.059,-0.105 0.037,-0.171 0.037,-0.255C0.037,-0.342 0.059,-0.41 0.104,-0.458C0.149,-0.506 0.207,-0.53 0.279,-0.53C0.348,-0.53 0.405,-0.507 0.449,-0.459C0.493,-0.412 0.515,-0.346 0.515,-0.26C0.515,-0.255 0.514,-0.247 0.514,-0.237L0.127,-0.237C0.131,-0.18 0.147,-0.136 0.176,-0.106C0.205,-0.076 0.241,-0.061 0.284,-0.061C0.316,-0.061 0.344,-0.069 0.367,-0.086C0.389,-0.103 0.408,-0.13 0.421,-0.167ZM0.132,-0.309L0.422,-0.309C0.418,-0.353 0.407,-0.385 0.389,-0.407C0.361,-0.441 0.324,-0.458 0.28,-0.458C0.239,-0.458 0.205,-0.444 0.178,-0.417C0.15,-0.39 0.135,-0.354 0.132,-0.309Z" style="fill-rule:nonzero;"/>
        </g>
    </g>
    <g transform="matrix(1.03517,0,0,0.974945,-294.475,-88.4486)">
        <g transform="matrix(284,0,0,284,274.803,319.946)">
            <path d="M0.041,-0.791L0.187,-0.791C0.284,-0.791 0.349,-0.787 0.384,-0.779C0.418,-0.772 0.446,-0.753 0.468,-0.722C0.489,-0.691 0.5,-0.642 0.5,-0.575C0.5,-0.513 0.492,-0.472 0.477,-0.451C0.462,-0.43 0.432,-0.417 0.387,-0.413C0.427,-0.403 0.455,-0.389 0.469,-0.372C0.483,-0.355 0.491,-0.34 0.495,-0.325C0.498,-0.311 0.5,-0.272 0.5,-0.208L0.5,-0L0.309,-0L0.309,-0.263C0.309,-0.305 0.306,-0.331 0.299,-0.341C0.292,-0.351 0.275,-0.356 0.247,-0.356L0.247,-0L0.041,-0L0.041,-0.791ZM0.247,-0.655L0.247,-0.479C0.27,-0.479 0.286,-0.483 0.295,-0.489C0.304,-0.495 0.309,-0.516 0.309,-0.551L0.309,-0.594C0.309,-0.619 0.305,-0.636 0.296,-0.644C0.287,-0.651 0.27,-0.655 0.247,-0.655Z" style="fill-rule:nonzero;"/>
        </g>
        <g transform="matrix(284,0,0,284,427.758,319.946)">
            <path d="M0.396,-0.791L0.514,-0L0.303,-0L0.293,-0.142L0.219,-0.142L0.207,-0L-0.006,-0L0.099,-0.791L0.396,-0.791ZM0.287,-0.282C0.277,-0.372 0.266,-0.482 0.256,-0.614C0.235,-0.463 0.222,-0.352 0.217,-0.282L0.287,-0.282Z" style="fill-rule:nonzero;"/>
        </g>
        <g transform="matrix(284,0,0,284,571.976,319.946)">
            <rect x="0.041" y="-0.791" width="0.206" height="0.791" style="fill-rule:nonzero;"/>
        </g>
        <g transform="matrix(284,0,0,284,653.793,319.946)">
            <path d="M0.477,-0.551L0.286,-0.551L0.286,-0.61C0.286,-0.637 0.283,-0.655 0.278,-0.662C0.273,-0.67 0.265,-0.673 0.254,-0.673C0.242,-0.673 0.232,-0.668 0.226,-0.658C0.219,-0.648 0.216,-0.633 0.216,-0.612C0.216,-0.586 0.22,-0.566 0.227,-0.553C0.234,-0.539 0.253,-0.523 0.285,-0.504C0.377,-0.45 0.434,-0.405 0.458,-0.371C0.482,-0.336 0.494,-0.28 0.494,-0.202C0.494,-0.146 0.487,-0.104 0.474,-0.078C0.461,-0.051 0.435,-0.029 0.397,-0.01C0.36,0.008 0.316,0.017 0.266,0.017C0.211,0.017 0.164,0.006 0.125,-0.015C0.086,-0.035 0.06,-0.062 0.048,-0.094C0.036,-0.126 0.03,-0.172 0.03,-0.231L0.03,-0.283L0.221,-0.283L0.221,-0.187C0.221,-0.157 0.224,-0.138 0.229,-0.13C0.235,-0.121 0.244,-0.117 0.258,-0.117C0.271,-0.117 0.282,-0.123 0.288,-0.133C0.295,-0.144 0.298,-0.16 0.298,-0.181C0.298,-0.228 0.292,-0.258 0.279,-0.272C0.266,-0.287 0.234,-0.311 0.183,-0.344C0.132,-0.378 0.098,-0.403 0.082,-0.418C0.065,-0.433 0.051,-0.454 0.04,-0.481C0.029,-0.508 0.024,-0.543 0.024,-0.585C0.024,-0.646 0.032,-0.69 0.047,-0.718C0.063,-0.746 0.088,-0.768 0.122,-0.783C0.157,-0.799 0.198,-0.807 0.247,-0.807C0.3,-0.807 0.346,-0.799 0.384,-0.781C0.421,-0.764 0.446,-0.742 0.458,-0.716C0.47,-0.69 0.477,-0.645 0.477,-0.583L0.477,-0.551Z" style="fill-rule:nonzero;"/>
        </g>
        <g transform="matrix(284,0,0,284,800.646,319.946)">
            <rect x="0.041" y="-0.791" width="0.206" height="0.791" style="fill-rule:nonzero;"/>
        </g>
        <g transform="matrix(284,0,0,284,882.463,319.946)">
            <path d="M0.5,-0.791L0.5,-0L0.32,-0L0.213,-0.359L0.213,-0L0.041,-0L0.041,-0.791L0.213,-0.791L0.328,-0.435L0.328,-0.791L0.5,-0.791Z" style="fill-rule:nonzero;"/>
        </g>
        <g transform="matrix(284,0,0,284,1036.25,319.946)">
            <path d="M0.513,-0.5L0.307,-0.5L0.307,-0.571C0.307,-0.617 0.305,-0.645 0.301,-0.656C0.297,-0.668 0.288,-0.673 0.273,-0.673C0.261,-0.673 0.252,-0.668 0.248,-0.659C0.243,-0.649 0.241,-0.624 0.241,-0.583L0.241,-0.204C0.241,-0.169 0.243,-0.145 0.248,-0.134C0.252,-0.123 0.261,-0.117 0.275,-0.117C0.29,-0.117 0.3,-0.124 0.305,-0.136C0.311,-0.149 0.313,-0.174 0.313,-0.21L0.313,-0.304L0.272,-0.304L0.272,-0.424L0.513,-0.424L0.513,-0L0.383,-0L0.364,-0.057C0.35,-0.032 0.333,-0.014 0.311,-0.002C0.29,0.01 0.265,0.017 0.236,0.017C0.201,0.017 0.169,0.008 0.139,-0.009C0.109,-0.025 0.086,-0.046 0.07,-0.071C0.055,-0.096 0.045,-0.122 0.041,-0.149C0.037,-0.176 0.035,-0.217 0.035,-0.271L0.035,-0.506C0.035,-0.581 0.039,-0.636 0.047,-0.67C0.056,-0.705 0.079,-0.736 0.117,-0.764C0.156,-0.793 0.206,-0.807 0.267,-0.807C0.327,-0.807 0.377,-0.795 0.417,-0.77C0.457,-0.745 0.483,-0.716 0.495,-0.682C0.507,-0.648 0.513,-0.598 0.513,-0.534L0.513,-0.5Z" style="fill-rule:nonzero;"/>
        </g>
    </g>
    <g transform="matrix(1,0,0,0.960118,-12.6526,167.317)">
        <g transform="matrix(284,0,0,284,274.803,319.946)">
            <path d="M0.041,-0.791L0.389,-0.791L0.389,-0.632L0.247,-0.632L0.247,-0.482L0.374,-0.482L0.374,-0.332L0.247,-0.332L0.247,-0L0.041,-0L0.041,-0.791Z" style="fill-rule:nonzero;"/>
        </g>
        <g transform="matrix(284,0,0,284,387.82,319.946)">
            <path d="M0.247,-0.791L0.247,-0.158L0.372,-0.158L0.372,-0L0.041,-0L0.041,-0.791L0.247,-0.791Z" style="fill-rule:nonzero;"/>
        </g>
        <g transform="matrix(284,0,0,284,491.547,319.946)">
            <path d="M0.511,-0.328C0.511,-0.248 0.509,-0.192 0.505,-0.159C0.501,-0.126 0.49,-0.096 0.47,-0.068C0.45,-0.041 0.424,-0.02 0.39,-0.005C0.357,0.009 0.318,0.017 0.273,0.017C0.231,0.017 0.193,0.01 0.159,-0.004C0.125,-0.018 0.098,-0.039 0.078,-0.066C0.057,-0.094 0.045,-0.124 0.041,-0.157C0.037,-0.189 0.035,-0.246 0.035,-0.328L0.035,-0.463C0.035,-0.542 0.037,-0.599 0.041,-0.632C0.045,-0.665 0.056,-0.695 0.076,-0.722C0.096,-0.75 0.122,-0.771 0.156,-0.785C0.189,-0.8 0.228,-0.807 0.273,-0.807C0.315,-0.807 0.353,-0.8 0.387,-0.786C0.421,-0.773 0.448,-0.752 0.468,-0.724C0.489,-0.696 0.501,-0.666 0.505,-0.634C0.509,-0.601 0.511,-0.544 0.511,-0.463L0.511,-0.328ZM0.305,-0.587C0.305,-0.624 0.303,-0.648 0.299,-0.658C0.295,-0.668 0.287,-0.673 0.274,-0.673C0.263,-0.673 0.255,-0.669 0.249,-0.661C0.244,-0.653 0.241,-0.628 0.241,-0.587L0.241,-0.218C0.241,-0.172 0.243,-0.144 0.246,-0.133C0.25,-0.123 0.259,-0.117 0.272,-0.117C0.286,-0.117 0.295,-0.123 0.299,-0.136C0.303,-0.148 0.305,-0.178 0.305,-0.224L0.305,-0.587Z" style="fill-rule:nonzero;"/>
        </g>
        <g transform="matrix(284,0,0,284,646.721,319.946)">
            <path d="M0.511,-0.328C0.511,-0.248 0.509,-0.192 0.505,-0.159C0.501,-0.126 0.49,-0.096 0.47,-0.068C0.45,-0.041 0.424,-0.02 0.39,-0.005C0.357,0.009 0.318,0.017 0.273,0.017C0.231,0.017 0.193,0.01 0.159,-0.004C0.125,-0.018 0.098,-0.039 0.078,-0.066C0.057,-0.094 0.045,-0.124 0.041,-0.157C0.037,-0.189 0.035,-0.246 0.035,-0.328L0.035,-0.463C0.035,-0.542 0.037,-0.599 0.041,-0.632C0.045,-0.665 0.056,-0.695 0.076,-0.722C0.096,-0.75 0.122,-0.771 0.156,-0.785C0.189,-0.8 0.228,-0.807 0.273,-0.807C0.315,-0.807 0.353,-0.8 0.387,-0.786C0.421,-0.773 0.448,-0.752 0.468,-0.724C0.489,-0.696 0.501,-0.666 0.505,-0.634C0.509,-0.601 0.511,-0.544 0.511,-0.463L0.511,-0.328ZM0.305,-0.587C0.305,-0.624 0.303,-0.648 0.299,-0.658C0.295,-0.668 0.287,-0.673 0.274,-0.673C0.263,-0.673 0.255,-0.669 0.249,-0.661C0.244,-0.653 0.241,-0.628 0.241,-0.587L0.241,-0.218C0.241,-0.172 0.243,-0.144 0.246,-0.133C0.25,-0.123 0.259,-0.117 0.272,-0.117C0.286,-0.117 0.295,-0.123 0.299,-0.136C0.303,-0.148 0.305,-0.178 0.305,-0.224L0.305,-0.587Z" style="fill-rule:nonzero;"/>
        </g>
        <g transform="matrix(284,0,0,284,801.894,319.946)">
            <path d="M0.041,-0.791L0.187,-0.791C0.284,-0.791 0.349,-0.787 0.384,-0.779C0.418,-0.772 0.446,-0.753 0.468,-0.722C0.489,-0.691 0.5,-0.642 0.5,-0.575C0.5,-0.513 0.492,-0.472 0.477,-0.451C0.462,-0.43 0.432,-0.417 0.387,-0.413C0.427,-0.403 0.455,-0.389 0.469,-0.372C0.483,-0.355 0.491,-0.34 0.495,-0.325C0.498,-0.311 0.5,-0.272 0.5,-0.208L0.5,-0L0.309,-0L0.309,-0.263C0.309,-0.305 0.306,-0.331 0.299,-0.341C0.292,-0.351 0.275,-0.356 0.247,-0.356L0.247,-0L0.041,-0L0.041,-0.791ZM0.247,-0.655L0.247,-0.479C0.27,-0.479 0.286,-0.483 0.295,-0.489C0.304,-0.495 0.309,-0.516 0.309,-0.551L0.309,-0.594C0.309,-0.619 0.305,-0.636 0.296,-0.644C0.287,-0.651 0.27,-0.655 0.247,-0.655Z" style="fill-rule:nonzero;"/>
        </g>
    </g>
</svg>
