<?xml version="1.0" encoding="UTF-8" standalone="no"?>
<!DOCTYPE svg PUBLIC "-//W3C//DTD SVG 1.1//EN" "http://www.w3.org/Graphics/SVG/1.1/DTD/svg11.dtd">
<svg width="100%" height="100%" viewBox="0 0 350 219" version="1.1" xmlns="http://www.w3.org/2000/svg" xmlns:xlink="http://www.w3.org/1999/xlink" xml:space="preserve" xmlns:serif="http://www.serif.com/" style="fill-rule:evenodd;clip-rule:evenodd;stroke-linejoin:round;stroke-miterlimit:2;">
    <g transform="matrix(1.03517,0,0,0.974945,-296.525,-93.0453)">
        <g transform="matrix(284,0,0,284,274.803,319.946)">
            <path d="M0.041,-0.791L0.187,-0.791C0.284,-0.791 0.349,-0.787 0.384,-0.779C0.418,-0.772 0.446,-0.753 0.468,-0.722C0.489,-0.691 0.5,-0.642 0.5,-0.575C0.5,-0.513 0.492,-0.472 0.477,-0.451C0.462,-0.43 0.432,-0.417 0.387,-0.413C0.427,-0.403 0.455,-0.389 0.469,-0.372C0.483,-0.355 0.491,-0.34 0.495,-0.325C0.498,-0.311 0.5,-0.272 0.5,-0.208L0.5,-0L0.309,-0L0.309,-0.263C0.309,-0.305 0.306,-0.331 0.299,-0.341C0.292,-0.351 0.275,-0.356 0.247,-0.356L0.247,-0L0.041,-0L0.041,-0.791ZM0.247,-0.655L0.247,-0.479C0.27,-0.479 0.286,-0.483 0.295,-0.489C0.304,-0.495 0.309,-0.516 0.309,-0.551L0.309,-0.594C0.309,-0.619 0.305,-0.636 0.296,-0.644C0.287,-0.651 0.27,-0.655 0.247,-0.655Z" style="fill-rule:nonzero;"/>
        </g>
        <g transform="matrix(284,0,0,284,427.758,319.946)">
            <path d="M0.243,-0.734L0.243,-0.632L0.296,-0.632L0.296,-0.53L0.243,-0.53L0.243,-0.183C0.243,-0.14 0.245,-0.117 0.25,-0.112C0.254,-0.107 0.272,-0.104 0.305,-0.104L0.305,-0L0.225,-0C0.18,-0 0.148,-0.002 0.129,-0.006C0.11,-0.009 0.093,-0.018 0.078,-0.031C0.063,-0.045 0.054,-0.06 0.051,-0.078C0.047,-0.095 0.045,-0.136 0.045,-0.201L0.045,-0.53L0.003,-0.53L0.003,-0.632L0.045,-0.632L0.045,-0.734L0.243,-0.734Z" style="fill-rule:nonzero;"/>
        </g>
        <g transform="matrix(284,0,0,284,514.289,319.946)">
            <path d="M0.041,-0.791L0.389,-0.791L0.389,-0.632L0.247,-0.632L0.247,-0.482L0.374,-0.482L0.374,-0.332L0.247,-0.332L0.247,-0L0.041,-0L0.041,-0.791Z" style="fill-rule:nonzero;"/>
        </g>
    </g>
</svg>
