<?xml version="1.0" encoding="UTF-8" standalone="no"?>
<!DOCTYPE svg PUBLIC "-//W3C//DTD SVG 1.1//EN" "http://www.w3.org/Graphics/SVG/1.1/DTD/svg11.dtd">
<svg width="100%" height="100%" viewBox="0 0 1628 479" version="1.1" xmlns="http://www.w3.org/2000/svg" xmlns:xlink="http://www.w3.org/1999/xlink" xml:space="preserve" xmlns:serif="http://www.serif.com/" style="fill-rule:evenodd;clip-rule:evenodd;stroke-linejoin:round;stroke-miterlimit:2;">
    <g transform="matrix(0.972688,0,0,1,-33.4214,-44.782)">
        <g transform="matrix(1.04154,0,0,1,-44.4808,0)">
            <g transform="matrix(96,0,0,96,1070.82,138.198)">
                <path d="M0.526,-0.189C0.526,-0.167 0.523,-0.147 0.517,-0.128C0.511,-0.11 0.502,-0.094 0.491,-0.08C0.481,-0.066 0.468,-0.054 0.452,-0.044C0.437,-0.034 0.421,-0.026 0.402,-0.019C0.384,-0.013 0.365,-0.008 0.344,-0.005C0.323,-0.002 0.3,-0 0.275,-0L0.107,-0C0.096,-0 0.087,-0.003 0.08,-0.01C0.073,-0.016 0.069,-0.026 0.069,-0.041L0.069,-0.591C0.069,-0.606 0.073,-0.616 0.08,-0.622C0.087,-0.629 0.096,-0.632 0.107,-0.632L0.266,-0.632C0.304,-0.632 0.337,-0.629 0.364,-0.622C0.391,-0.616 0.413,-0.606 0.432,-0.593C0.45,-0.579 0.464,-0.563 0.474,-0.542C0.484,-0.522 0.489,-0.499 0.489,-0.471C0.489,-0.456 0.487,-0.441 0.483,-0.428C0.479,-0.414 0.473,-0.402 0.466,-0.391C0.458,-0.38 0.449,-0.37 0.438,-0.362C0.427,-0.353 0.415,-0.347 0.401,-0.341C0.419,-0.338 0.435,-0.332 0.45,-0.324C0.466,-0.316 0.479,-0.306 0.49,-0.293C0.501,-0.28 0.51,-0.265 0.517,-0.248C0.523,-0.23 0.526,-0.211 0.526,-0.189ZM0.36,-0.456C0.36,-0.468 0.358,-0.48 0.354,-0.49C0.351,-0.5 0.345,-0.508 0.337,-0.515C0.329,-0.522 0.319,-0.527 0.307,-0.53C0.295,-0.534 0.28,-0.536 0.26,-0.536L0.195,-0.536L0.195,-0.372L0.267,-0.372C0.285,-0.372 0.3,-0.374 0.311,-0.378C0.322,-0.383 0.331,-0.389 0.339,-0.396C0.346,-0.404 0.351,-0.413 0.355,-0.423C0.359,-0.433 0.36,-0.444 0.36,-0.456ZM0.393,-0.185C0.393,-0.2 0.391,-0.213 0.386,-0.224C0.381,-0.236 0.374,-0.246 0.364,-0.253C0.355,-0.261 0.343,-0.267 0.328,-0.271C0.313,-0.276 0.294,-0.278 0.271,-0.278L0.195,-0.278L0.195,-0.098L0.288,-0.098C0.306,-0.098 0.321,-0.1 0.333,-0.104C0.345,-0.108 0.356,-0.113 0.365,-0.12C0.373,-0.128 0.38,-0.137 0.385,-0.148C0.391,-0.159 0.393,-0.171 0.393,-0.185Z" style="fill:rgb(99,96,96);fill-rule:nonzero;"/>
            </g>
            <g transform="matrix(96,0,0,96,1124.63,138.198)">
                <path d="M0.443,-0.05C0.443,-0.041 0.443,-0.033 0.442,-0.027C0.441,-0.02 0.44,-0.015 0.438,-0.011C0.437,-0.007 0.435,-0.004 0.432,-0.003C0.43,-0.001 0.427,-0 0.424,-0L0.107,-0C0.096,-0 0.087,-0.003 0.08,-0.01C0.073,-0.016 0.069,-0.026 0.069,-0.041L0.069,-0.591C0.069,-0.606 0.073,-0.616 0.08,-0.622C0.087,-0.629 0.096,-0.632 0.107,-0.632L0.422,-0.632C0.425,-0.632 0.428,-0.631 0.43,-0.629C0.432,-0.628 0.434,-0.625 0.436,-0.621C0.438,-0.617 0.439,-0.612 0.44,-0.605C0.441,-0.599 0.441,-0.591 0.441,-0.581C0.441,-0.572 0.441,-0.564 0.44,-0.558C0.439,-0.552 0.438,-0.546 0.436,-0.542C0.434,-0.539 0.432,-0.536 0.43,-0.534C0.428,-0.532 0.425,-0.531 0.422,-0.531L0.197,-0.531L0.197,-0.377L0.388,-0.377C0.391,-0.377 0.393,-0.376 0.396,-0.374C0.398,-0.372 0.4,-0.37 0.402,-0.366C0.403,-0.362 0.405,-0.357 0.406,-0.351C0.406,-0.344 0.407,-0.337 0.407,-0.328C0.407,-0.318 0.406,-0.31 0.406,-0.304C0.405,-0.298 0.403,-0.293 0.402,-0.289C0.4,-0.286 0.398,-0.283 0.396,-0.281C0.393,-0.28 0.391,-0.279 0.388,-0.279L0.197,-0.279L0.197,-0.101L0.424,-0.101C0.427,-0.101 0.43,-0.1 0.432,-0.098C0.435,-0.096 0.437,-0.093 0.438,-0.089C0.44,-0.085 0.441,-0.08 0.442,-0.074C0.443,-0.068 0.443,-0.06 0.443,-0.05Z" style="fill:rgb(99,96,96);fill-rule:nonzero;"/>
            </g>
            <g transform="matrix(96,0,0,96,1170.11,138.198)">
                <path d="M0.506,-0.096C0.506,-0.088 0.506,-0.081 0.505,-0.075C0.505,-0.069 0.504,-0.064 0.503,-0.06C0.502,-0.056 0.501,-0.053 0.499,-0.05C0.497,-0.047 0.495,-0.044 0.491,-0.04C0.488,-0.036 0.481,-0.031 0.47,-0.025C0.46,-0.02 0.448,-0.014 0.433,-0.009C0.418,-0.003 0.401,0.001 0.382,0.005C0.363,0.008 0.342,0.01 0.32,0.01C0.277,0.01 0.238,0.004 0.203,-0.01C0.168,-0.023 0.139,-0.043 0.114,-0.07C0.09,-0.096 0.071,-0.129 0.058,-0.169C0.045,-0.209 0.039,-0.255 0.039,-0.308C0.039,-0.361 0.046,-0.409 0.06,-0.451C0.074,-0.492 0.094,-0.527 0.12,-0.556C0.146,-0.584 0.177,-0.605 0.213,-0.62C0.249,-0.635 0.288,-0.642 0.332,-0.642C0.349,-0.642 0.366,-0.641 0.382,-0.638C0.399,-0.635 0.414,-0.631 0.427,-0.626C0.441,-0.622 0.454,-0.616 0.465,-0.61C0.476,-0.604 0.484,-0.598 0.488,-0.594C0.492,-0.59 0.495,-0.586 0.497,-0.583C0.499,-0.58 0.5,-0.576 0.501,-0.572C0.502,-0.567 0.503,-0.562 0.503,-0.556C0.504,-0.549 0.504,-0.542 0.504,-0.533C0.504,-0.523 0.504,-0.515 0.503,-0.508C0.502,-0.501 0.501,-0.495 0.5,-0.491C0.498,-0.487 0.496,-0.484 0.494,-0.482C0.491,-0.48 0.489,-0.479 0.486,-0.479C0.481,-0.479 0.475,-0.482 0.467,-0.488C0.46,-0.493 0.45,-0.5 0.438,-0.507C0.426,-0.514 0.412,-0.52 0.396,-0.526C0.379,-0.531 0.36,-0.534 0.337,-0.534C0.312,-0.534 0.289,-0.529 0.27,-0.519C0.25,-0.509 0.233,-0.494 0.219,-0.475C0.206,-0.456 0.195,-0.433 0.188,-0.406C0.181,-0.379 0.177,-0.348 0.177,-0.314C0.177,-0.277 0.181,-0.245 0.189,-0.218C0.196,-0.191 0.207,-0.168 0.221,-0.151C0.236,-0.133 0.253,-0.12 0.273,-0.112C0.293,-0.103 0.315,-0.099 0.34,-0.099C0.363,-0.099 0.383,-0.101 0.399,-0.107C0.416,-0.112 0.43,-0.118 0.442,-0.125C0.454,-0.131 0.464,-0.137 0.471,-0.142C0.479,-0.147 0.485,-0.15 0.489,-0.15C0.493,-0.15 0.495,-0.149 0.497,-0.148C0.499,-0.147 0.501,-0.144 0.502,-0.14C0.503,-0.136 0.504,-0.131 0.505,-0.124C0.506,-0.117 0.506,-0.107 0.506,-0.096Z" style="fill:rgb(99,96,96);fill-rule:nonzero;"/>
            </g>
            <g transform="matrix(96,0,0,96,1220.92,138.198)">
                <path d="M0.586,-0.048C0.59,-0.036 0.593,-0.027 0.594,-0.02C0.595,-0.013 0.593,-0.008 0.59,-0.005C0.586,-0.001 0.58,0.001 0.571,0.002C0.562,0.003 0.549,0.003 0.533,0.003C0.517,0.003 0.504,0.003 0.494,0.002C0.485,0.002 0.478,0.001 0.473,-0.001C0.468,-0.002 0.465,-0.004 0.463,-0.007C0.461,-0.009 0.459,-0.013 0.458,-0.017L0.416,-0.144L0.178,-0.144L0.138,-0.021C0.137,-0.016 0.135,-0.012 0.133,-0.009C0.131,-0.006 0.128,-0.003 0.123,-0.002C0.118,0 0.111,0.001 0.103,0.002C0.094,0.003 0.083,0.003 0.069,0.003C0.054,0.003 0.042,0.002 0.034,0.001C0.025,0 0.019,-0.002 0.016,-0.006C0.013,-0.009 0.012,-0.015 0.013,-0.021C0.014,-0.028 0.016,-0.037 0.02,-0.049L0.215,-0.609C0.217,-0.615 0.219,-0.619 0.222,-0.623C0.224,-0.626 0.228,-0.629 0.234,-0.631C0.24,-0.632 0.248,-0.634 0.258,-0.634C0.268,-0.635 0.281,-0.635 0.298,-0.635C0.317,-0.635 0.332,-0.635 0.344,-0.634C0.355,-0.634 0.364,-0.632 0.37,-0.631C0.377,-0.629 0.381,-0.626 0.384,-0.623C0.387,-0.619 0.389,-0.614 0.391,-0.608L0.586,-0.048ZM0.296,-0.511L0.296,-0.511L0.207,-0.243L0.386,-0.243L0.296,-0.511Z" style="fill:rgb(99,96,96);fill-rule:nonzero;"/>
            </g>
            <g transform="matrix(96,0,0,96,1277.52,138.198)">
                <path d="M0.584,-0.235C0.584,-0.197 0.579,-0.162 0.567,-0.131C0.556,-0.101 0.539,-0.075 0.517,-0.054C0.495,-0.033 0.468,-0.016 0.435,-0.005C0.403,0.006 0.365,0.011 0.323,0.011C0.283,0.011 0.247,0.006 0.216,-0.004C0.184,-0.014 0.158,-0.029 0.136,-0.049C0.114,-0.069 0.097,-0.094 0.086,-0.124C0.074,-0.154 0.068,-0.19 0.068,-0.23L0.068,-0.614C0.068,-0.618 0.069,-0.62 0.071,-0.623C0.073,-0.626 0.077,-0.628 0.082,-0.629C0.087,-0.631 0.093,-0.632 0.102,-0.633C0.11,-0.634 0.12,-0.635 0.133,-0.635C0.145,-0.635 0.155,-0.634 0.164,-0.633C0.172,-0.632 0.178,-0.631 0.183,-0.629C0.188,-0.628 0.191,-0.626 0.194,-0.623C0.196,-0.62 0.197,-0.618 0.197,-0.614L0.197,-0.241C0.197,-0.216 0.2,-0.194 0.206,-0.176C0.212,-0.158 0.221,-0.142 0.233,-0.13C0.244,-0.118 0.258,-0.109 0.274,-0.103C0.29,-0.097 0.308,-0.094 0.328,-0.094C0.348,-0.094 0.366,-0.097 0.382,-0.104C0.398,-0.11 0.412,-0.119 0.423,-0.131C0.434,-0.142 0.442,-0.157 0.448,-0.175C0.455,-0.192 0.458,-0.212 0.458,-0.234L0.458,-0.614C0.458,-0.618 0.458,-0.62 0.46,-0.623C0.462,-0.626 0.466,-0.628 0.471,-0.629C0.476,-0.631 0.482,-0.632 0.49,-0.633C0.499,-0.634 0.509,-0.635 0.521,-0.635C0.534,-0.635 0.544,-0.634 0.552,-0.633C0.56,-0.632 0.566,-0.631 0.571,-0.629C0.576,-0.628 0.58,-0.626 0.582,-0.623C0.583,-0.62 0.584,-0.618 0.584,-0.614L0.584,-0.235Z" style="fill:rgb(99,96,96);fill-rule:nonzero;"/>
            </g>
            <g transform="matrix(96,0,0,96,1340.19,138.198)">
                <path d="M0.443,-0.189C0.443,-0.156 0.437,-0.127 0.425,-0.102C0.412,-0.077 0.396,-0.056 0.375,-0.039C0.353,-0.023 0.329,-0.01 0.3,-0.001C0.272,0.007 0.242,0.011 0.209,0.011C0.188,0.011 0.167,0.009 0.149,0.006C0.13,0.002 0.113,-0.002 0.099,-0.007C0.085,-0.012 0.073,-0.017 0.063,-0.023C0.054,-0.028 0.047,-0.033 0.042,-0.038C0.038,-0.042 0.035,-0.048 0.033,-0.056C0.032,-0.064 0.031,-0.075 0.031,-0.09C0.031,-0.1 0.031,-0.109 0.032,-0.116C0.032,-0.123 0.033,-0.128 0.035,-0.132C0.036,-0.137 0.038,-0.14 0.041,-0.141C0.043,-0.143 0.046,-0.144 0.049,-0.144C0.054,-0.144 0.06,-0.141 0.069,-0.136C0.077,-0.131 0.088,-0.125 0.101,-0.118C0.114,-0.112 0.129,-0.106 0.147,-0.1C0.165,-0.095 0.186,-0.092 0.21,-0.092C0.226,-0.092 0.24,-0.094 0.252,-0.098C0.264,-0.102 0.275,-0.107 0.283,-0.114C0.292,-0.121 0.299,-0.129 0.303,-0.139C0.308,-0.149 0.31,-0.16 0.31,-0.173C0.31,-0.187 0.306,-0.199 0.298,-0.21C0.291,-0.22 0.28,-0.229 0.268,-0.237C0.255,-0.245 0.241,-0.253 0.225,-0.26C0.209,-0.267 0.193,-0.274 0.176,-0.282C0.159,-0.29 0.142,-0.298 0.126,-0.308C0.111,-0.318 0.096,-0.33 0.084,-0.344C0.071,-0.358 0.061,-0.374 0.053,-0.393C0.045,-0.412 0.042,-0.435 0.042,-0.461C0.042,-0.491 0.047,-0.518 0.058,-0.541C0.07,-0.564 0.085,-0.583 0.104,-0.598C0.123,-0.613 0.145,-0.624 0.171,-0.632C0.197,-0.639 0.224,-0.643 0.253,-0.643C0.268,-0.643 0.283,-0.642 0.298,-0.64C0.313,-0.637 0.327,-0.634 0.34,-0.63C0.353,-0.626 0.365,-0.622 0.375,-0.617C0.385,-0.612 0.392,-0.608 0.395,-0.605C0.398,-0.602 0.4,-0.599 0.402,-0.597C0.403,-0.594 0.404,-0.591 0.405,-0.588C0.405,-0.584 0.406,-0.579 0.406,-0.573C0.407,-0.568 0.407,-0.561 0.407,-0.552C0.407,-0.543 0.406,-0.535 0.406,-0.528C0.406,-0.522 0.405,-0.516 0.404,-0.512C0.402,-0.508 0.401,-0.505 0.399,-0.503C0.397,-0.501 0.394,-0.5 0.39,-0.5C0.387,-0.5 0.381,-0.502 0.373,-0.507C0.365,-0.511 0.356,-0.516 0.344,-0.522C0.333,-0.527 0.32,-0.532 0.305,-0.536C0.29,-0.541 0.273,-0.543 0.255,-0.543C0.241,-0.543 0.229,-0.541 0.219,-0.538C0.208,-0.534 0.2,-0.53 0.193,-0.524C0.186,-0.518 0.18,-0.51 0.177,-0.502C0.174,-0.493 0.172,-0.485 0.172,-0.475C0.172,-0.461 0.176,-0.449 0.183,-0.439C0.191,-0.428 0.201,-0.419 0.214,-0.411C0.227,-0.403 0.242,-0.396 0.258,-0.389C0.274,-0.382 0.291,-0.375 0.308,-0.367C0.325,-0.359 0.341,-0.35 0.357,-0.34C0.374,-0.33 0.388,-0.318 0.401,-0.304C0.414,-0.291 0.424,-0.274 0.432,-0.256C0.439,-0.237 0.443,-0.215 0.443,-0.189Z" style="fill:rgb(99,96,96);fill-rule:nonzero;"/>
            </g>
            <g transform="matrix(96,0,0,96,1385.56,138.198)">
                <path d="M0.443,-0.05C0.443,-0.041 0.443,-0.033 0.442,-0.027C0.441,-0.02 0.44,-0.015 0.438,-0.011C0.437,-0.007 0.435,-0.004 0.432,-0.003C0.43,-0.001 0.427,-0 0.424,-0L0.107,-0C0.096,-0 0.087,-0.003 0.08,-0.01C0.073,-0.016 0.069,-0.026 0.069,-0.041L0.069,-0.591C0.069,-0.606 0.073,-0.616 0.08,-0.622C0.087,-0.629 0.096,-0.632 0.107,-0.632L0.422,-0.632C0.425,-0.632 0.428,-0.631 0.43,-0.629C0.432,-0.628 0.434,-0.625 0.436,-0.621C0.438,-0.617 0.439,-0.612 0.44,-0.605C0.441,-0.599 0.441,-0.591 0.441,-0.581C0.441,-0.572 0.441,-0.564 0.44,-0.558C0.439,-0.552 0.438,-0.546 0.436,-0.542C0.434,-0.539 0.432,-0.536 0.43,-0.534C0.428,-0.532 0.425,-0.531 0.422,-0.531L0.197,-0.531L0.197,-0.377L0.388,-0.377C0.391,-0.377 0.393,-0.376 0.396,-0.374C0.398,-0.372 0.4,-0.37 0.402,-0.366C0.403,-0.362 0.405,-0.357 0.406,-0.351C0.406,-0.344 0.407,-0.337 0.407,-0.328C0.407,-0.318 0.406,-0.31 0.406,-0.304C0.405,-0.298 0.403,-0.293 0.402,-0.289C0.4,-0.286 0.398,-0.283 0.396,-0.281C0.393,-0.28 0.391,-0.279 0.388,-0.279L0.197,-0.279L0.197,-0.101L0.424,-0.101C0.427,-0.101 0.43,-0.1 0.432,-0.098C0.435,-0.096 0.437,-0.093 0.438,-0.089C0.44,-0.085 0.441,-0.08 0.442,-0.074C0.443,-0.068 0.443,-0.06 0.443,-0.05Z" style="fill:rgb(99,96,96);fill-rule:nonzero;"/>
            </g>
        </g>
        <g transform="matrix(1.04154,0,0,1,-44.4808,0)">
            <g transform="matrix(96,0,0,96,1070.82,254.198)">
                <path d="M0.489,-0.579C0.489,-0.57 0.489,-0.562 0.488,-0.555C0.487,-0.548 0.486,-0.543 0.484,-0.539C0.483,-0.535 0.481,-0.532 0.478,-0.53C0.476,-0.528 0.473,-0.527 0.47,-0.527L0.312,-0.527L0.312,-0.018C0.312,-0.014 0.311,-0.011 0.309,-0.009C0.307,-0.006 0.303,-0.004 0.298,-0.002C0.293,-0.001 0.287,0 0.279,0.001C0.27,0.002 0.26,0.003 0.248,0.003C0.235,0.003 0.225,0.002 0.217,0.001C0.208,0 0.202,-0.001 0.197,-0.002C0.192,-0.004 0.188,-0.006 0.186,-0.009C0.184,-0.011 0.183,-0.014 0.183,-0.018L0.183,-0.527L0.025,-0.527C0.022,-0.527 0.019,-0.528 0.017,-0.53C0.014,-0.532 0.012,-0.535 0.011,-0.539C0.009,-0.543 0.008,-0.548 0.007,-0.555C0.006,-0.562 0.006,-0.57 0.006,-0.579C0.006,-0.589 0.006,-0.597 0.007,-0.604C0.008,-0.611 0.009,-0.616 0.011,-0.62C0.012,-0.624 0.014,-0.627 0.017,-0.629C0.019,-0.631 0.022,-0.632 0.025,-0.632L0.47,-0.632C0.473,-0.632 0.476,-0.631 0.478,-0.629C0.481,-0.627 0.483,-0.624 0.484,-0.62C0.486,-0.616 0.487,-0.611 0.488,-0.604C0.489,-0.597 0.489,-0.589 0.489,-0.579Z" style="fill:rgb(99,96,96);fill-rule:nonzero;"/>
            </g>
            <g transform="matrix(96,0,0,96,1118.35,254.198)">
                <path d="M0.443,-0.05C0.443,-0.041 0.443,-0.033 0.442,-0.027C0.441,-0.02 0.44,-0.015 0.438,-0.011C0.437,-0.007 0.435,-0.004 0.432,-0.003C0.43,-0.001 0.427,-0 0.424,-0L0.107,-0C0.096,-0 0.087,-0.003 0.08,-0.01C0.073,-0.016 0.069,-0.026 0.069,-0.041L0.069,-0.591C0.069,-0.606 0.073,-0.616 0.08,-0.622C0.087,-0.629 0.096,-0.632 0.107,-0.632L0.422,-0.632C0.425,-0.632 0.428,-0.631 0.43,-0.629C0.432,-0.628 0.434,-0.625 0.436,-0.621C0.438,-0.617 0.439,-0.612 0.44,-0.605C0.441,-0.599 0.441,-0.591 0.441,-0.581C0.441,-0.572 0.441,-0.564 0.44,-0.558C0.439,-0.552 0.438,-0.546 0.436,-0.542C0.434,-0.539 0.432,-0.536 0.43,-0.534C0.428,-0.532 0.425,-0.531 0.422,-0.531L0.197,-0.531L0.197,-0.377L0.388,-0.377C0.391,-0.377 0.393,-0.376 0.396,-0.374C0.398,-0.372 0.4,-0.37 0.402,-0.366C0.403,-0.362 0.405,-0.357 0.406,-0.351C0.406,-0.344 0.407,-0.337 0.407,-0.328C0.407,-0.318 0.406,-0.31 0.406,-0.304C0.405,-0.298 0.403,-0.293 0.402,-0.289C0.4,-0.286 0.398,-0.283 0.396,-0.281C0.393,-0.28 0.391,-0.279 0.388,-0.279L0.197,-0.279L0.197,-0.101L0.424,-0.101C0.427,-0.101 0.43,-0.1 0.432,-0.098C0.435,-0.096 0.437,-0.093 0.438,-0.089C0.44,-0.085 0.441,-0.08 0.442,-0.074C0.443,-0.068 0.443,-0.06 0.443,-0.05Z" style="fill:rgb(99,96,96);fill-rule:nonzero;"/>
            </g>
            <g transform="matrix(96,0,0,96,1163.83,254.198)">
                <path d="M0.506,-0.096C0.506,-0.088 0.506,-0.081 0.505,-0.075C0.505,-0.069 0.504,-0.064 0.503,-0.06C0.502,-0.056 0.501,-0.053 0.499,-0.05C0.497,-0.047 0.495,-0.044 0.491,-0.04C0.488,-0.036 0.481,-0.031 0.47,-0.025C0.46,-0.02 0.448,-0.014 0.433,-0.009C0.418,-0.003 0.401,0.001 0.382,0.005C0.363,0.008 0.342,0.01 0.32,0.01C0.277,0.01 0.238,0.004 0.203,-0.01C0.168,-0.023 0.139,-0.043 0.114,-0.07C0.09,-0.096 0.071,-0.129 0.058,-0.169C0.045,-0.209 0.039,-0.255 0.039,-0.308C0.039,-0.361 0.046,-0.409 0.06,-0.451C0.074,-0.492 0.094,-0.527 0.12,-0.556C0.146,-0.584 0.177,-0.605 0.213,-0.62C0.249,-0.635 0.288,-0.642 0.332,-0.642C0.349,-0.642 0.366,-0.641 0.382,-0.638C0.399,-0.635 0.414,-0.631 0.427,-0.626C0.441,-0.622 0.454,-0.616 0.465,-0.61C0.476,-0.604 0.484,-0.598 0.488,-0.594C0.492,-0.59 0.495,-0.586 0.497,-0.583C0.499,-0.58 0.5,-0.576 0.501,-0.572C0.502,-0.567 0.503,-0.562 0.503,-0.556C0.504,-0.549 0.504,-0.542 0.504,-0.533C0.504,-0.523 0.504,-0.515 0.503,-0.508C0.502,-0.501 0.501,-0.495 0.5,-0.491C0.498,-0.487 0.496,-0.484 0.494,-0.482C0.491,-0.48 0.489,-0.479 0.486,-0.479C0.481,-0.479 0.475,-0.482 0.467,-0.488C0.46,-0.493 0.45,-0.5 0.438,-0.507C0.426,-0.514 0.412,-0.52 0.396,-0.526C0.379,-0.531 0.36,-0.534 0.337,-0.534C0.312,-0.534 0.289,-0.529 0.27,-0.519C0.25,-0.509 0.233,-0.494 0.219,-0.475C0.206,-0.456 0.195,-0.433 0.188,-0.406C0.181,-0.379 0.177,-0.348 0.177,-0.314C0.177,-0.277 0.181,-0.245 0.189,-0.218C0.196,-0.191 0.207,-0.168 0.221,-0.151C0.236,-0.133 0.253,-0.12 0.273,-0.112C0.293,-0.103 0.315,-0.099 0.34,-0.099C0.363,-0.099 0.383,-0.101 0.399,-0.107C0.416,-0.112 0.43,-0.118 0.442,-0.125C0.454,-0.131 0.464,-0.137 0.471,-0.142C0.479,-0.147 0.485,-0.15 0.489,-0.15C0.493,-0.15 0.495,-0.149 0.497,-0.148C0.499,-0.147 0.501,-0.144 0.502,-0.14C0.503,-0.136 0.504,-0.131 0.505,-0.124C0.506,-0.117 0.506,-0.107 0.506,-0.096Z" style="fill:rgb(99,96,96);fill-rule:nonzero;"/>
            </g>
            <g transform="matrix(96,0,0,96,1214.64,254.198)">
                <path d="M0.562,-0.018C0.562,-0.014 0.561,-0.011 0.559,-0.009C0.557,-0.006 0.553,-0.004 0.548,-0.002C0.543,-0.001 0.537,0 0.529,0.001C0.521,0.002 0.51,0.003 0.498,0.003C0.485,0.003 0.475,0.002 0.467,0.001C0.458,0 0.452,-0.001 0.447,-0.002C0.442,-0.004 0.439,-0.006 0.437,-0.009C0.435,-0.011 0.434,-0.014 0.434,-0.018L0.434,-0.273L0.197,-0.273L0.197,-0.018C0.197,-0.014 0.196,-0.011 0.194,-0.009C0.192,-0.006 0.189,-0.004 0.184,-0.002C0.179,-0.001 0.173,0 0.165,0.001C0.156,0.002 0.146,0.003 0.133,0.003C0.121,0.003 0.111,0.002 0.102,0.001C0.094,0 0.087,-0.001 0.083,-0.002C0.078,-0.004 0.074,-0.006 0.072,-0.009C0.07,-0.011 0.069,-0.014 0.069,-0.018L0.069,-0.614C0.069,-0.618 0.07,-0.62 0.072,-0.623C0.074,-0.626 0.078,-0.628 0.083,-0.629C0.087,-0.631 0.094,-0.632 0.102,-0.633C0.111,-0.634 0.121,-0.635 0.133,-0.635C0.146,-0.635 0.156,-0.634 0.165,-0.633C0.173,-0.632 0.179,-0.631 0.184,-0.629C0.189,-0.628 0.192,-0.626 0.194,-0.623C0.196,-0.62 0.197,-0.618 0.197,-0.614L0.197,-0.382L0.434,-0.382L0.434,-0.614C0.434,-0.618 0.435,-0.62 0.437,-0.623C0.439,-0.626 0.442,-0.628 0.447,-0.629C0.452,-0.631 0.458,-0.632 0.467,-0.633C0.475,-0.634 0.485,-0.635 0.498,-0.635C0.51,-0.635 0.521,-0.634 0.529,-0.633C0.537,-0.632 0.543,-0.631 0.548,-0.629C0.553,-0.628 0.557,-0.626 0.559,-0.623C0.561,-0.62 0.562,-0.618 0.562,-0.614L0.562,-0.018Z" style="fill:rgb(99,96,96);fill-rule:nonzero;"/>
            </g>
            <g transform="matrix(96,0,0,96,1275.2,254.198)">
                <path d="M0.59,-0.045C0.59,-0.037 0.589,-0.031 0.586,-0.025C0.583,-0.019 0.58,-0.014 0.575,-0.01C0.571,-0.006 0.566,-0.003 0.56,-0.002C0.554,0 0.548,0.001 0.542,0.001L0.487,0.001C0.475,0.001 0.466,-0 0.457,-0.002C0.449,-0.005 0.441,-0.009 0.434,-0.015C0.427,-0.021 0.421,-0.029 0.414,-0.039C0.408,-0.05 0.4,-0.063 0.392,-0.079L0.235,-0.375C0.226,-0.392 0.216,-0.411 0.207,-0.431C0.198,-0.452 0.189,-0.472 0.182,-0.491L0.181,-0.491C0.182,-0.467 0.183,-0.444 0.184,-0.421C0.184,-0.397 0.185,-0.373 0.185,-0.349L0.185,-0.018C0.185,-0.015 0.184,-0.012 0.182,-0.009C0.18,-0.007 0.177,-0.004 0.173,-0.003C0.168,-0.001 0.162,0 0.155,0.001C0.147,0.002 0.138,0.003 0.126,0.003C0.115,0.003 0.105,0.002 0.098,0.001C0.09,0 0.084,-0.001 0.08,-0.003C0.076,-0.004 0.073,-0.007 0.071,-0.009C0.07,-0.012 0.069,-0.015 0.069,-0.018L0.069,-0.586C0.069,-0.601 0.073,-0.613 0.082,-0.62C0.091,-0.628 0.102,-0.632 0.115,-0.632L0.184,-0.632C0.196,-0.632 0.207,-0.631 0.215,-0.629C0.224,-0.627 0.231,-0.623 0.238,-0.618C0.245,-0.613 0.251,-0.607 0.257,-0.598C0.263,-0.589 0.269,-0.579 0.275,-0.566L0.398,-0.335C0.405,-0.321 0.412,-0.307 0.419,-0.294C0.426,-0.28 0.433,-0.267 0.439,-0.253C0.446,-0.24 0.452,-0.226 0.458,-0.213C0.465,-0.2 0.471,-0.187 0.477,-0.174L0.477,-0.174C0.476,-0.197 0.475,-0.221 0.475,-0.246C0.474,-0.27 0.474,-0.294 0.474,-0.316L0.474,-0.613C0.474,-0.616 0.475,-0.619 0.477,-0.622C0.479,-0.624 0.482,-0.626 0.487,-0.628C0.491,-0.63 0.497,-0.632 0.505,-0.633C0.512,-0.633 0.522,-0.634 0.534,-0.634C0.545,-0.634 0.554,-0.633 0.562,-0.633C0.569,-0.632 0.575,-0.63 0.579,-0.628C0.583,-0.626 0.586,-0.624 0.587,-0.622C0.589,-0.619 0.59,-0.616 0.59,-0.613L0.59,-0.045Z" style="fill:rgb(99,96,96);fill-rule:nonzero;"/>
            </g>
            <g transform="matrix(96,0,0,96,1338.44,254.198)">
                <path d="M0.637,-0.323C0.637,-0.271 0.631,-0.224 0.618,-0.183C0.605,-0.141 0.585,-0.106 0.56,-0.077C0.534,-0.049 0.502,-0.027 0.464,-0.011C0.426,0.004 0.382,0.011 0.333,0.011C0.283,0.011 0.24,0.005 0.204,-0.008C0.167,-0.021 0.137,-0.041 0.112,-0.067C0.088,-0.093 0.07,-0.127 0.057,-0.167C0.045,-0.208 0.039,-0.256 0.039,-0.312C0.039,-0.363 0.046,-0.409 0.059,-0.45C0.072,-0.491 0.091,-0.526 0.117,-0.554C0.142,-0.583 0.174,-0.605 0.212,-0.62C0.25,-0.635 0.294,-0.643 0.344,-0.643C0.392,-0.643 0.434,-0.637 0.471,-0.624C0.508,-0.611 0.538,-0.592 0.563,-0.565C0.587,-0.539 0.606,-0.506 0.618,-0.466C0.631,-0.425 0.637,-0.378 0.637,-0.323ZM0.502,-0.316C0.502,-0.35 0.5,-0.38 0.495,-0.407C0.489,-0.434 0.481,-0.457 0.468,-0.477C0.455,-0.496 0.439,-0.511 0.418,-0.522C0.397,-0.532 0.371,-0.538 0.34,-0.538C0.308,-0.538 0.282,-0.532 0.261,-0.52C0.24,-0.508 0.222,-0.492 0.209,-0.472C0.196,-0.452 0.187,-0.429 0.182,-0.403C0.177,-0.376 0.174,-0.348 0.174,-0.318C0.174,-0.284 0.176,-0.253 0.182,-0.225C0.187,-0.198 0.196,-0.174 0.208,-0.155C0.22,-0.135 0.237,-0.12 0.258,-0.11C0.279,-0.1 0.305,-0.095 0.336,-0.095C0.368,-0.095 0.394,-0.101 0.416,-0.112C0.437,-0.124 0.454,-0.14 0.467,-0.16C0.48,-0.18 0.489,-0.204 0.494,-0.231C0.5,-0.258 0.502,-0.286 0.502,-0.316Z" style="fill:rgb(99,96,96);fill-rule:nonzero;"/>
            </g>
            <g transform="matrix(96,0,0,96,1403.36,254.198)">
                <path d="M0.416,-0.054C0.416,-0.044 0.416,-0.036 0.415,-0.029C0.414,-0.022 0.413,-0.017 0.411,-0.012C0.41,-0.008 0.407,-0.005 0.405,-0.003C0.403,-0.001 0.4,-0 0.396,-0L0.107,-0C0.096,-0 0.087,-0.003 0.08,-0.01C0.073,-0.016 0.069,-0.026 0.069,-0.041L0.069,-0.614C0.069,-0.618 0.07,-0.62 0.072,-0.623C0.074,-0.626 0.078,-0.628 0.083,-0.629C0.087,-0.631 0.094,-0.632 0.102,-0.633C0.111,-0.634 0.121,-0.635 0.133,-0.635C0.146,-0.635 0.156,-0.634 0.165,-0.633C0.173,-0.632 0.179,-0.631 0.184,-0.629C0.189,-0.628 0.192,-0.626 0.195,-0.623C0.197,-0.62 0.198,-0.618 0.198,-0.614L0.198,-0.106L0.396,-0.106C0.4,-0.106 0.403,-0.105 0.405,-0.103C0.407,-0.101 0.41,-0.099 0.411,-0.094C0.413,-0.09 0.414,-0.085 0.415,-0.078C0.416,-0.072 0.416,-0.063 0.416,-0.054Z" style="fill:rgb(99,96,96);fill-rule:nonzero;"/>
            </g>
            <g transform="matrix(96,0,0,96,1442.33,254.198)">
                <path d="M0.637,-0.323C0.637,-0.271 0.631,-0.224 0.618,-0.183C0.605,-0.141 0.585,-0.106 0.56,-0.077C0.534,-0.049 0.502,-0.027 0.464,-0.011C0.426,0.004 0.382,0.011 0.333,0.011C0.283,0.011 0.24,0.005 0.204,-0.008C0.167,-0.021 0.137,-0.041 0.112,-0.067C0.088,-0.093 0.07,-0.127 0.057,-0.167C0.045,-0.208 0.039,-0.256 0.039,-0.312C0.039,-0.363 0.046,-0.409 0.059,-0.45C0.072,-0.491 0.091,-0.526 0.117,-0.554C0.142,-0.583 0.174,-0.605 0.212,-0.62C0.25,-0.635 0.294,-0.643 0.344,-0.643C0.392,-0.643 0.434,-0.637 0.471,-0.624C0.508,-0.611 0.538,-0.592 0.563,-0.565C0.587,-0.539 0.606,-0.506 0.618,-0.466C0.631,-0.425 0.637,-0.378 0.637,-0.323ZM0.502,-0.316C0.502,-0.35 0.5,-0.38 0.495,-0.407C0.489,-0.434 0.481,-0.457 0.468,-0.477C0.455,-0.496 0.439,-0.511 0.418,-0.522C0.397,-0.532 0.371,-0.538 0.34,-0.538C0.308,-0.538 0.282,-0.532 0.261,-0.52C0.24,-0.508 0.222,-0.492 0.209,-0.472C0.196,-0.452 0.187,-0.429 0.182,-0.403C0.177,-0.376 0.174,-0.348 0.174,-0.318C0.174,-0.284 0.176,-0.253 0.182,-0.225C0.187,-0.198 0.196,-0.174 0.208,-0.155C0.22,-0.135 0.237,-0.12 0.258,-0.11C0.279,-0.1 0.305,-0.095 0.336,-0.095C0.368,-0.095 0.394,-0.101 0.416,-0.112C0.437,-0.124 0.454,-0.14 0.467,-0.16C0.48,-0.18 0.489,-0.204 0.494,-0.231C0.5,-0.258 0.502,-0.286 0.502,-0.316Z" style="fill:rgb(99,96,96);fill-rule:nonzero;"/>
            </g>
            <g transform="matrix(96,0,0,96,1507.25,254.198)">
                <path d="M0.576,-0.534C0.576,-0.524 0.575,-0.516 0.574,-0.509C0.574,-0.502 0.573,-0.497 0.571,-0.493C0.57,-0.489 0.568,-0.486 0.566,-0.484C0.564,-0.483 0.561,-0.482 0.558,-0.482C0.554,-0.482 0.547,-0.485 0.538,-0.491C0.528,-0.497 0.516,-0.503 0.5,-0.51C0.484,-0.517 0.466,-0.523 0.444,-0.529C0.422,-0.535 0.397,-0.538 0.369,-0.538C0.338,-0.538 0.31,-0.532 0.286,-0.522C0.261,-0.511 0.24,-0.496 0.222,-0.477C0.205,-0.457 0.191,-0.434 0.182,-0.407C0.172,-0.38 0.167,-0.35 0.167,-0.317C0.167,-0.281 0.172,-0.249 0.182,-0.221C0.191,-0.194 0.205,-0.171 0.222,-0.152C0.239,-0.134 0.26,-0.12 0.284,-0.11C0.309,-0.101 0.335,-0.096 0.365,-0.096C0.379,-0.096 0.393,-0.098 0.407,-0.101C0.421,-0.104 0.434,-0.109 0.446,-0.116L0.446,-0.262L0.327,-0.262C0.321,-0.262 0.316,-0.266 0.313,-0.273C0.31,-0.281 0.308,-0.293 0.308,-0.311C0.308,-0.32 0.309,-0.327 0.309,-0.333C0.31,-0.34 0.311,-0.345 0.313,-0.348C0.315,-0.352 0.317,-0.355 0.319,-0.357C0.321,-0.358 0.324,-0.359 0.327,-0.359L0.54,-0.359C0.545,-0.359 0.55,-0.358 0.554,-0.357C0.558,-0.355 0.562,-0.352 0.565,-0.349C0.568,-0.345 0.57,-0.341 0.572,-0.336C0.573,-0.331 0.574,-0.325 0.574,-0.318L0.574,-0.067C0.574,-0.057 0.573,-0.049 0.569,-0.041C0.566,-0.034 0.559,-0.028 0.548,-0.024C0.538,-0.02 0.524,-0.015 0.509,-0.011C0.493,-0.006 0.477,-0.002 0.46,0.001C0.443,0.004 0.427,0.007 0.409,0.008C0.392,0.01 0.375,0.011 0.358,0.011C0.307,0.011 0.262,0.003 0.222,-0.011C0.183,-0.025 0.149,-0.046 0.121,-0.074C0.093,-0.101 0.072,-0.135 0.058,-0.175C0.043,-0.214 0.036,-0.259 0.036,-0.309C0.036,-0.361 0.043,-0.407 0.059,-0.448C0.075,-0.49 0.097,-0.525 0.125,-0.553C0.154,-0.582 0.189,-0.604 0.229,-0.62C0.27,-0.635 0.315,-0.643 0.365,-0.643C0.392,-0.643 0.417,-0.641 0.439,-0.637C0.462,-0.633 0.482,-0.629 0.498,-0.623C0.515,-0.618 0.529,-0.612 0.54,-0.606C0.551,-0.6 0.559,-0.594 0.563,-0.59C0.568,-0.585 0.571,-0.579 0.573,-0.571C0.575,-0.562 0.576,-0.55 0.576,-0.534Z" style="fill:rgb(99,96,96);fill-rule:nonzero;"/>
            </g>
            <g transform="matrix(96,0,0,96,1567.08,254.198)">
                <path d="M0.324,-0.24L0.324,-0.018C0.324,-0.014 0.323,-0.011 0.321,-0.009C0.319,-0.006 0.315,-0.004 0.311,-0.002C0.306,-0.001 0.299,0 0.291,0.001C0.282,0.002 0.272,0.003 0.26,0.003C0.247,0.003 0.237,0.002 0.229,0.001C0.22,0 0.214,-0.001 0.209,-0.002C0.204,-0.004 0.2,-0.006 0.198,-0.009C0.196,-0.011 0.195,-0.014 0.195,-0.018L0.195,-0.24L0.022,-0.584C0.016,-0.596 0.012,-0.605 0.01,-0.612C0.009,-0.619 0.01,-0.624 0.013,-0.627C0.017,-0.631 0.024,-0.633 0.034,-0.634C0.044,-0.634 0.058,-0.635 0.076,-0.635C0.091,-0.635 0.103,-0.634 0.112,-0.634C0.121,-0.633 0.128,-0.632 0.133,-0.63C0.139,-0.628 0.142,-0.626 0.145,-0.623C0.147,-0.62 0.15,-0.616 0.152,-0.612L0.222,-0.457C0.229,-0.442 0.236,-0.426 0.242,-0.409C0.249,-0.393 0.256,-0.375 0.263,-0.357L0.264,-0.357C0.27,-0.375 0.276,-0.392 0.283,-0.408C0.289,-0.425 0.296,-0.441 0.302,-0.456L0.371,-0.61C0.373,-0.615 0.375,-0.619 0.377,-0.622C0.38,-0.625 0.383,-0.628 0.388,-0.63C0.393,-0.632 0.4,-0.633 0.408,-0.634C0.417,-0.634 0.428,-0.635 0.442,-0.635C0.46,-0.635 0.475,-0.634 0.485,-0.634C0.495,-0.633 0.502,-0.631 0.506,-0.627C0.51,-0.624 0.511,-0.619 0.509,-0.612C0.507,-0.605 0.503,-0.596 0.497,-0.584L0.324,-0.24Z" style="fill:rgb(99,96,96);fill-rule:nonzero;"/>
            </g>
        </g>
        <g transform="matrix(1.04154,0,0,1,-44.4808,0)">
            <g transform="matrix(96,0,0,96,1070.82,370.198)">
                <path d="M0.443,-0.189C0.443,-0.156 0.437,-0.127 0.425,-0.102C0.412,-0.077 0.396,-0.056 0.375,-0.039C0.353,-0.023 0.329,-0.01 0.3,-0.001C0.272,0.007 0.242,0.011 0.209,0.011C0.188,0.011 0.167,0.009 0.149,0.006C0.13,0.002 0.113,-0.002 0.099,-0.007C0.085,-0.012 0.073,-0.017 0.063,-0.023C0.054,-0.028 0.047,-0.033 0.042,-0.038C0.038,-0.042 0.035,-0.048 0.033,-0.056C0.032,-0.064 0.031,-0.075 0.031,-0.09C0.031,-0.1 0.031,-0.109 0.032,-0.116C0.032,-0.123 0.033,-0.128 0.035,-0.132C0.036,-0.137 0.038,-0.14 0.041,-0.141C0.043,-0.143 0.046,-0.144 0.049,-0.144C0.054,-0.144 0.06,-0.141 0.069,-0.136C0.077,-0.131 0.088,-0.125 0.101,-0.118C0.114,-0.112 0.129,-0.106 0.147,-0.1C0.165,-0.095 0.186,-0.092 0.21,-0.092C0.226,-0.092 0.24,-0.094 0.252,-0.098C0.264,-0.102 0.275,-0.107 0.283,-0.114C0.292,-0.121 0.299,-0.129 0.303,-0.139C0.308,-0.149 0.31,-0.16 0.31,-0.173C0.31,-0.187 0.306,-0.199 0.298,-0.21C0.291,-0.22 0.28,-0.229 0.268,-0.237C0.255,-0.245 0.241,-0.253 0.225,-0.26C0.209,-0.267 0.193,-0.274 0.176,-0.282C0.159,-0.29 0.142,-0.298 0.126,-0.308C0.111,-0.318 0.096,-0.33 0.084,-0.344C0.071,-0.358 0.061,-0.374 0.053,-0.393C0.045,-0.412 0.042,-0.435 0.042,-0.461C0.042,-0.491 0.047,-0.518 0.058,-0.541C0.07,-0.564 0.085,-0.583 0.104,-0.598C0.123,-0.613 0.145,-0.624 0.171,-0.632C0.197,-0.639 0.224,-0.643 0.253,-0.643C0.268,-0.643 0.283,-0.642 0.298,-0.64C0.313,-0.637 0.327,-0.634 0.34,-0.63C0.353,-0.626 0.365,-0.622 0.375,-0.617C0.385,-0.612 0.392,-0.608 0.395,-0.605C0.398,-0.602 0.4,-0.599 0.402,-0.597C0.403,-0.594 0.404,-0.591 0.405,-0.588C0.405,-0.584 0.406,-0.579 0.406,-0.573C0.407,-0.568 0.407,-0.561 0.407,-0.552C0.407,-0.543 0.406,-0.535 0.406,-0.528C0.406,-0.522 0.405,-0.516 0.404,-0.512C0.402,-0.508 0.401,-0.505 0.399,-0.503C0.397,-0.501 0.394,-0.5 0.39,-0.5C0.387,-0.5 0.381,-0.502 0.373,-0.507C0.365,-0.511 0.356,-0.516 0.344,-0.522C0.333,-0.527 0.32,-0.532 0.305,-0.536C0.29,-0.541 0.273,-0.543 0.255,-0.543C0.241,-0.543 0.229,-0.541 0.219,-0.538C0.208,-0.534 0.2,-0.53 0.193,-0.524C0.186,-0.518 0.18,-0.51 0.177,-0.502C0.174,-0.493 0.172,-0.485 0.172,-0.475C0.172,-0.461 0.176,-0.449 0.183,-0.439C0.191,-0.428 0.201,-0.419 0.214,-0.411C0.227,-0.403 0.242,-0.396 0.258,-0.389C0.274,-0.382 0.291,-0.375 0.308,-0.367C0.325,-0.359 0.341,-0.35 0.357,-0.34C0.374,-0.33 0.388,-0.318 0.401,-0.304C0.414,-0.291 0.424,-0.274 0.432,-0.256C0.439,-0.237 0.443,-0.215 0.443,-0.189Z" style="fill:rgb(99,96,96);fill-rule:nonzero;"/>
            </g>
            <g transform="matrix(96,0,0,96,1116.19,370.198)">
                <path d="M0.562,-0.018C0.562,-0.014 0.561,-0.011 0.559,-0.009C0.557,-0.006 0.553,-0.004 0.548,-0.002C0.543,-0.001 0.537,0 0.529,0.001C0.521,0.002 0.51,0.003 0.498,0.003C0.485,0.003 0.475,0.002 0.467,0.001C0.458,0 0.452,-0.001 0.447,-0.002C0.442,-0.004 0.439,-0.006 0.437,-0.009C0.435,-0.011 0.434,-0.014 0.434,-0.018L0.434,-0.273L0.197,-0.273L0.197,-0.018C0.197,-0.014 0.196,-0.011 0.194,-0.009C0.192,-0.006 0.189,-0.004 0.184,-0.002C0.179,-0.001 0.173,0 0.165,0.001C0.156,0.002 0.146,0.003 0.133,0.003C0.121,0.003 0.111,0.002 0.102,0.001C0.094,0 0.087,-0.001 0.083,-0.002C0.078,-0.004 0.074,-0.006 0.072,-0.009C0.07,-0.011 0.069,-0.014 0.069,-0.018L0.069,-0.614C0.069,-0.618 0.07,-0.62 0.072,-0.623C0.074,-0.626 0.078,-0.628 0.083,-0.629C0.087,-0.631 0.094,-0.632 0.102,-0.633C0.111,-0.634 0.121,-0.635 0.133,-0.635C0.146,-0.635 0.156,-0.634 0.165,-0.633C0.173,-0.632 0.179,-0.631 0.184,-0.629C0.189,-0.628 0.192,-0.626 0.194,-0.623C0.196,-0.62 0.197,-0.618 0.197,-0.614L0.197,-0.382L0.434,-0.382L0.434,-0.614C0.434,-0.618 0.435,-0.62 0.437,-0.623C0.439,-0.626 0.442,-0.628 0.447,-0.629C0.452,-0.631 0.458,-0.632 0.467,-0.633C0.475,-0.634 0.485,-0.635 0.498,-0.635C0.51,-0.635 0.521,-0.634 0.529,-0.633C0.537,-0.632 0.543,-0.631 0.548,-0.629C0.553,-0.628 0.557,-0.626 0.559,-0.623C0.561,-0.62 0.562,-0.618 0.562,-0.614L0.562,-0.018Z" style="fill:rgb(99,96,96);fill-rule:nonzero;"/>
            </g>
            <g transform="matrix(96,0,0,96,1176.76,370.198)">
                <path d="M0.637,-0.323C0.637,-0.271 0.631,-0.224 0.618,-0.183C0.605,-0.141 0.585,-0.106 0.56,-0.077C0.534,-0.049 0.502,-0.027 0.464,-0.011C0.426,0.004 0.382,0.011 0.333,0.011C0.283,0.011 0.24,0.005 0.204,-0.008C0.167,-0.021 0.137,-0.041 0.112,-0.067C0.088,-0.093 0.07,-0.127 0.057,-0.167C0.045,-0.208 0.039,-0.256 0.039,-0.312C0.039,-0.363 0.046,-0.409 0.059,-0.45C0.072,-0.491 0.091,-0.526 0.117,-0.554C0.142,-0.583 0.174,-0.605 0.212,-0.62C0.25,-0.635 0.294,-0.643 0.344,-0.643C0.392,-0.643 0.434,-0.637 0.471,-0.624C0.508,-0.611 0.538,-0.592 0.563,-0.565C0.587,-0.539 0.606,-0.506 0.618,-0.466C0.631,-0.425 0.637,-0.378 0.637,-0.323ZM0.502,-0.316C0.502,-0.35 0.5,-0.38 0.495,-0.407C0.489,-0.434 0.481,-0.457 0.468,-0.477C0.455,-0.496 0.439,-0.511 0.418,-0.522C0.397,-0.532 0.371,-0.538 0.34,-0.538C0.308,-0.538 0.282,-0.532 0.261,-0.52C0.24,-0.508 0.222,-0.492 0.209,-0.472C0.196,-0.452 0.187,-0.429 0.182,-0.403C0.177,-0.376 0.174,-0.348 0.174,-0.318C0.174,-0.284 0.176,-0.253 0.182,-0.225C0.187,-0.198 0.196,-0.174 0.208,-0.155C0.22,-0.135 0.237,-0.12 0.258,-0.11C0.279,-0.1 0.305,-0.095 0.336,-0.095C0.368,-0.095 0.394,-0.101 0.416,-0.112C0.437,-0.124 0.454,-0.14 0.467,-0.16C0.48,-0.18 0.489,-0.204 0.494,-0.231C0.5,-0.258 0.502,-0.286 0.502,-0.316Z" style="fill:rgb(99,96,96);fill-rule:nonzero;"/>
            </g>
            <g transform="matrix(96,0,0,96,1241.68,370.198)">
                <path d="M0.584,-0.235C0.584,-0.197 0.579,-0.162 0.567,-0.131C0.556,-0.101 0.539,-0.075 0.517,-0.054C0.495,-0.033 0.468,-0.016 0.435,-0.005C0.403,0.006 0.365,0.011 0.323,0.011C0.283,0.011 0.247,0.006 0.216,-0.004C0.184,-0.014 0.158,-0.029 0.136,-0.049C0.114,-0.069 0.097,-0.094 0.086,-0.124C0.074,-0.154 0.068,-0.19 0.068,-0.23L0.068,-0.614C0.068,-0.618 0.069,-0.62 0.071,-0.623C0.073,-0.626 0.077,-0.628 0.082,-0.629C0.087,-0.631 0.093,-0.632 0.102,-0.633C0.11,-0.634 0.12,-0.635 0.133,-0.635C0.145,-0.635 0.155,-0.634 0.164,-0.633C0.172,-0.632 0.178,-0.631 0.183,-0.629C0.188,-0.628 0.191,-0.626 0.194,-0.623C0.196,-0.62 0.197,-0.618 0.197,-0.614L0.197,-0.241C0.197,-0.216 0.2,-0.194 0.206,-0.176C0.212,-0.158 0.221,-0.142 0.233,-0.13C0.244,-0.118 0.258,-0.109 0.274,-0.103C0.29,-0.097 0.308,-0.094 0.328,-0.094C0.348,-0.094 0.366,-0.097 0.382,-0.104C0.398,-0.11 0.412,-0.119 0.423,-0.131C0.434,-0.142 0.442,-0.157 0.448,-0.175C0.455,-0.192 0.458,-0.212 0.458,-0.234L0.458,-0.614C0.458,-0.618 0.458,-0.62 0.46,-0.623C0.462,-0.626 0.466,-0.628 0.471,-0.629C0.476,-0.631 0.482,-0.632 0.49,-0.633C0.499,-0.634 0.509,-0.635 0.521,-0.635C0.534,-0.635 0.544,-0.634 0.552,-0.633C0.56,-0.632 0.566,-0.631 0.571,-0.629C0.576,-0.628 0.58,-0.626 0.582,-0.623C0.583,-0.62 0.584,-0.618 0.584,-0.614L0.584,-0.235Z" style="fill:rgb(99,96,96);fill-rule:nonzero;"/>
            </g>
            <g transform="matrix(96,0,0,96,1304.35,370.198)">
                <path d="M0.416,-0.054C0.416,-0.044 0.416,-0.036 0.415,-0.029C0.414,-0.022 0.413,-0.017 0.411,-0.012C0.41,-0.008 0.407,-0.005 0.405,-0.003C0.403,-0.001 0.4,-0 0.396,-0L0.107,-0C0.096,-0 0.087,-0.003 0.08,-0.01C0.073,-0.016 0.069,-0.026 0.069,-0.041L0.069,-0.614C0.069,-0.618 0.07,-0.62 0.072,-0.623C0.074,-0.626 0.078,-0.628 0.083,-0.629C0.087,-0.631 0.094,-0.632 0.102,-0.633C0.111,-0.634 0.121,-0.635 0.133,-0.635C0.146,-0.635 0.156,-0.634 0.165,-0.633C0.173,-0.632 0.179,-0.631 0.184,-0.629C0.189,-0.628 0.192,-0.626 0.195,-0.623C0.197,-0.62 0.198,-0.618 0.198,-0.614L0.198,-0.106L0.396,-0.106C0.4,-0.106 0.403,-0.105 0.405,-0.103C0.407,-0.101 0.41,-0.099 0.411,-0.094C0.413,-0.09 0.414,-0.085 0.415,-0.078C0.416,-0.072 0.416,-0.063 0.416,-0.054Z" style="fill:rgb(99,96,96);fill-rule:nonzero;"/>
            </g>
            <g transform="matrix(96,0,0,96,1344.94,370.198)">
                <path d="M0.594,-0.325C0.594,-0.267 0.586,-0.218 0.571,-0.177C0.556,-0.135 0.534,-0.102 0.506,-0.076C0.478,-0.05 0.443,-0.031 0.403,-0.018C0.362,-0.006 0.314,-0 0.258,-0L0.107,-0C0.096,-0 0.087,-0.003 0.08,-0.01C0.073,-0.016 0.069,-0.026 0.069,-0.041L0.069,-0.591C0.069,-0.606 0.073,-0.616 0.08,-0.622C0.087,-0.629 0.096,-0.632 0.107,-0.632L0.269,-0.632C0.325,-0.632 0.373,-0.625 0.412,-0.612C0.452,-0.599 0.485,-0.579 0.511,-0.553C0.538,-0.528 0.559,-0.496 0.573,-0.458C0.587,-0.419 0.594,-0.375 0.594,-0.325ZM0.461,-0.321C0.461,-0.351 0.457,-0.379 0.45,-0.404C0.443,-0.43 0.432,-0.452 0.417,-0.471C0.401,-0.49 0.381,-0.505 0.357,-0.515C0.333,-0.526 0.301,-0.531 0.262,-0.531L0.197,-0.531L0.197,-0.102L0.264,-0.102C0.299,-0.102 0.328,-0.106 0.353,-0.115C0.377,-0.124 0.397,-0.138 0.413,-0.156C0.429,-0.175 0.441,-0.198 0.449,-0.225C0.457,-0.252 0.461,-0.284 0.461,-0.321Z" style="fill:rgb(99,96,96);fill-rule:nonzero;"/>
            </g>
            <g transform="matrix(96,0,0,96,1427.16,370.198)">
                <path d="M0.734,-0.033C0.732,-0.025 0.729,-0.019 0.726,-0.014C0.722,-0.009 0.717,-0.006 0.71,-0.003C0.704,-0.001 0.695,0.001 0.684,0.002C0.673,0.003 0.66,0.003 0.643,0.003C0.625,0.003 0.61,0.003 0.598,0.002C0.587,0.001 0.578,-0.001 0.572,-0.003C0.565,-0.006 0.561,-0.009 0.558,-0.014C0.555,-0.019 0.552,-0.025 0.551,-0.033L0.45,-0.433L0.449,-0.433L0.353,-0.033C0.351,-0.025 0.349,-0.019 0.346,-0.014C0.343,-0.01 0.339,-0.006 0.332,-0.003C0.326,-0.001 0.317,0.001 0.306,0.002C0.295,0.003 0.281,0.003 0.263,0.003C0.244,0.003 0.229,0.003 0.218,0.002C0.207,0.001 0.198,-0.001 0.191,-0.003C0.185,-0.006 0.18,-0.009 0.177,-0.014C0.174,-0.019 0.172,-0.025 0.17,-0.033L0.026,-0.584C0.023,-0.596 0.022,-0.605 0.021,-0.612C0.021,-0.618 0.023,-0.623 0.027,-0.627C0.031,-0.631 0.038,-0.633 0.047,-0.634C0.056,-0.634 0.069,-0.635 0.086,-0.635C0.101,-0.635 0.113,-0.635 0.122,-0.634C0.131,-0.634 0.138,-0.632 0.143,-0.631C0.147,-0.629 0.15,-0.626 0.152,-0.623C0.153,-0.619 0.155,-0.615 0.156,-0.608L0.267,-0.125L0.267,-0.125L0.382,-0.605C0.384,-0.611 0.385,-0.616 0.387,-0.62C0.39,-0.624 0.393,-0.627 0.398,-0.629C0.403,-0.631 0.41,-0.633 0.419,-0.634C0.428,-0.634 0.439,-0.635 0.454,-0.635C0.47,-0.635 0.482,-0.634 0.491,-0.634C0.501,-0.633 0.508,-0.632 0.513,-0.63C0.518,-0.628 0.522,-0.625 0.524,-0.621C0.526,-0.617 0.528,-0.611 0.529,-0.605L0.648,-0.125L0.649,-0.125L0.76,-0.607C0.761,-0.612 0.763,-0.617 0.764,-0.62C0.766,-0.624 0.769,-0.627 0.773,-0.629C0.778,-0.631 0.785,-0.633 0.793,-0.634C0.801,-0.634 0.813,-0.635 0.829,-0.635C0.843,-0.635 0.854,-0.634 0.862,-0.634C0.87,-0.633 0.876,-0.631 0.879,-0.627C0.883,-0.623 0.885,-0.618 0.884,-0.611C0.884,-0.604 0.882,-0.595 0.879,-0.583L0.734,-0.033Z" style="fill:rgb(99,96,96);fill-rule:nonzero;"/>
            </g>
            <g transform="matrix(96,0,0,96,1513.04,370.198)">
                <path d="M0.637,-0.323C0.637,-0.271 0.631,-0.224 0.618,-0.183C0.605,-0.141 0.585,-0.106 0.56,-0.077C0.534,-0.049 0.502,-0.027 0.464,-0.011C0.426,0.004 0.382,0.011 0.333,0.011C0.283,0.011 0.24,0.005 0.204,-0.008C0.167,-0.021 0.137,-0.041 0.112,-0.067C0.088,-0.093 0.07,-0.127 0.057,-0.167C0.045,-0.208 0.039,-0.256 0.039,-0.312C0.039,-0.363 0.046,-0.409 0.059,-0.45C0.072,-0.491 0.091,-0.526 0.117,-0.554C0.142,-0.583 0.174,-0.605 0.212,-0.62C0.25,-0.635 0.294,-0.643 0.344,-0.643C0.392,-0.643 0.434,-0.637 0.471,-0.624C0.508,-0.611 0.538,-0.592 0.563,-0.565C0.587,-0.539 0.606,-0.506 0.618,-0.466C0.631,-0.425 0.637,-0.378 0.637,-0.323ZM0.502,-0.316C0.502,-0.35 0.5,-0.38 0.495,-0.407C0.489,-0.434 0.481,-0.457 0.468,-0.477C0.455,-0.496 0.439,-0.511 0.418,-0.522C0.397,-0.532 0.371,-0.538 0.34,-0.538C0.308,-0.538 0.282,-0.532 0.261,-0.52C0.24,-0.508 0.222,-0.492 0.209,-0.472C0.196,-0.452 0.187,-0.429 0.182,-0.403C0.177,-0.376 0.174,-0.348 0.174,-0.318C0.174,-0.284 0.176,-0.253 0.182,-0.225C0.187,-0.198 0.196,-0.174 0.208,-0.155C0.22,-0.135 0.237,-0.12 0.258,-0.11C0.279,-0.1 0.305,-0.095 0.336,-0.095C0.368,-0.095 0.394,-0.101 0.416,-0.112C0.437,-0.124 0.454,-0.14 0.467,-0.16C0.48,-0.18 0.489,-0.204 0.494,-0.231C0.5,-0.258 0.502,-0.286 0.502,-0.316Z" style="fill:rgb(99,96,96);fill-rule:nonzero;"/>
            </g>
            <g transform="matrix(96,0,0,96,1577.96,370.198)">
                <path d="M0.538,-0.017C0.538,-0.013 0.537,-0.01 0.536,-0.008C0.534,-0.005 0.531,-0.003 0.526,-0.001C0.521,0 0.514,0.001 0.505,0.002C0.495,0.003 0.483,0.003 0.466,0.003C0.453,0.003 0.442,0.003 0.434,0.002C0.425,0.001 0.419,0 0.414,-0.002C0.41,-0.003 0.406,-0.006 0.404,-0.009C0.402,-0.011 0.401,-0.015 0.399,-0.019L0.343,-0.16C0.336,-0.176 0.329,-0.19 0.323,-0.202C0.316,-0.215 0.309,-0.225 0.301,-0.233C0.293,-0.241 0.284,-0.248 0.273,-0.252C0.263,-0.256 0.251,-0.258 0.237,-0.258L0.197,-0.258L0.197,-0.018C0.197,-0.014 0.196,-0.011 0.194,-0.009C0.192,-0.006 0.188,-0.004 0.184,-0.002C0.179,-0.001 0.172,0 0.164,0.001C0.156,0.002 0.146,0.003 0.133,0.003C0.12,0.003 0.11,0.002 0.102,0.001C0.094,0 0.087,-0.001 0.082,-0.002C0.077,-0.004 0.074,-0.006 0.072,-0.009C0.07,-0.011 0.069,-0.014 0.069,-0.018L0.069,-0.591C0.069,-0.606 0.073,-0.616 0.08,-0.622C0.087,-0.629 0.096,-0.632 0.107,-0.632L0.271,-0.632C0.287,-0.632 0.301,-0.632 0.312,-0.631C0.322,-0.63 0.332,-0.629 0.341,-0.628C0.366,-0.625 0.389,-0.619 0.409,-0.61C0.43,-0.601 0.447,-0.59 0.461,-0.575C0.475,-0.561 0.486,-0.545 0.494,-0.525C0.501,-0.506 0.505,-0.484 0.505,-0.458C0.505,-0.437 0.502,-0.418 0.497,-0.401C0.491,-0.383 0.484,-0.368 0.473,-0.354C0.463,-0.34 0.45,-0.328 0.435,-0.318C0.419,-0.308 0.402,-0.3 0.382,-0.294C0.392,-0.289 0.401,-0.284 0.409,-0.277C0.417,-0.271 0.425,-0.263 0.432,-0.254C0.44,-0.244 0.447,-0.234 0.453,-0.222C0.46,-0.21 0.466,-0.197 0.472,-0.182L0.525,-0.057C0.53,-0.045 0.534,-0.036 0.535,-0.03C0.537,-0.024 0.538,-0.02 0.538,-0.017ZM0.372,-0.445C0.372,-0.466 0.367,-0.484 0.358,-0.498C0.348,-0.512 0.333,-0.522 0.312,-0.528C0.305,-0.53 0.298,-0.531 0.289,-0.532C0.281,-0.533 0.27,-0.534 0.255,-0.534L0.197,-0.534L0.197,-0.354L0.263,-0.354C0.281,-0.354 0.297,-0.357 0.311,-0.361C0.324,-0.365 0.336,-0.372 0.345,-0.38C0.354,-0.388 0.361,-0.397 0.365,-0.408C0.37,-0.419 0.372,-0.432 0.372,-0.445Z" style="fill:rgb(99,96,96);fill-rule:nonzero;"/>
            </g>
            <g transform="matrix(96,0,0,96,1632.01,370.198)">
                <path d="M0.53,-0.019C0.53,-0.015 0.529,-0.012 0.528,-0.01C0.526,-0.007 0.522,-0.004 0.517,-0.003C0.512,-0.001 0.505,0 0.497,0.001C0.488,0.002 0.477,0.003 0.463,0.003C0.442,0.003 0.427,0.002 0.418,0C0.408,-0.001 0.402,-0.004 0.398,-0.007C0.394,-0.01 0.39,-0.014 0.388,-0.019L0.197,-0.318L0.197,-0.019C0.197,-0.015 0.196,-0.012 0.194,-0.009C0.192,-0.007 0.189,-0.004 0.184,-0.003C0.179,-0.001 0.173,0 0.165,0.001C0.156,0.002 0.146,0.003 0.133,0.003C0.121,0.003 0.111,0.002 0.102,0.001C0.094,0 0.087,-0.001 0.083,-0.003C0.078,-0.004 0.074,-0.007 0.072,-0.009C0.07,-0.012 0.069,-0.015 0.069,-0.019L0.069,-0.614C0.069,-0.617 0.07,-0.62 0.072,-0.623C0.074,-0.626 0.078,-0.628 0.083,-0.629C0.087,-0.631 0.094,-0.632 0.102,-0.633C0.111,-0.634 0.121,-0.635 0.133,-0.635C0.146,-0.635 0.156,-0.634 0.165,-0.633C0.173,-0.632 0.179,-0.631 0.184,-0.629C0.189,-0.628 0.192,-0.626 0.194,-0.623C0.196,-0.62 0.197,-0.617 0.197,-0.614L0.197,-0.345L0.382,-0.613C0.385,-0.618 0.387,-0.621 0.391,-0.624C0.394,-0.627 0.398,-0.629 0.403,-0.63C0.409,-0.632 0.415,-0.633 0.423,-0.634C0.431,-0.634 0.442,-0.635 0.455,-0.635C0.468,-0.635 0.478,-0.634 0.487,-0.633C0.495,-0.632 0.502,-0.631 0.507,-0.629C0.512,-0.627 0.516,-0.625 0.518,-0.623C0.52,-0.62 0.521,-0.617 0.521,-0.614C0.521,-0.608 0.519,-0.603 0.516,-0.597C0.513,-0.591 0.508,-0.582 0.5,-0.569L0.326,-0.342L0.515,-0.056C0.522,-0.043 0.527,-0.034 0.528,-0.03C0.53,-0.025 0.53,-0.022 0.53,-0.019Z" style="fill:rgb(99,96,96);fill-rule:nonzero;"/>
            </g>
        </g>
        <g transform="matrix(1.04154,0,0,1,-44.4808,0)">
            <g transform="matrix(96,0,0,96,1070.82,486.198)">
                <path d="M0.423,-0.579C0.423,-0.569 0.423,-0.561 0.422,-0.554C0.421,-0.548 0.42,-0.542 0.418,-0.539C0.416,-0.535 0.414,-0.532 0.412,-0.53C0.41,-0.528 0.407,-0.527 0.404,-0.527L0.198,-0.527L0.198,-0.357L0.392,-0.357C0.395,-0.357 0.397,-0.356 0.399,-0.354C0.402,-0.353 0.404,-0.35 0.406,-0.346C0.407,-0.342 0.409,-0.337 0.409,-0.331C0.41,-0.324 0.411,-0.316 0.411,-0.306C0.411,-0.296 0.41,-0.288 0.409,-0.282C0.409,-0.275 0.407,-0.27 0.406,-0.266C0.404,-0.261 0.402,-0.258 0.399,-0.257C0.397,-0.255 0.395,-0.254 0.392,-0.254L0.198,-0.254L0.198,-0.019C0.198,-0.015 0.197,-0.012 0.195,-0.009C0.193,-0.007 0.189,-0.004 0.184,-0.003C0.179,-0.001 0.173,0 0.165,0.001C0.156,0.002 0.146,0.003 0.133,0.003C0.121,0.003 0.111,0.002 0.102,0.001C0.094,0 0.087,-0.001 0.083,-0.003C0.078,-0.004 0.074,-0.007 0.072,-0.009C0.07,-0.012 0.069,-0.015 0.069,-0.019L0.069,-0.591C0.069,-0.606 0.073,-0.616 0.08,-0.622C0.087,-0.629 0.096,-0.632 0.107,-0.632L0.404,-0.632C0.407,-0.632 0.41,-0.631 0.412,-0.629C0.414,-0.627 0.416,-0.624 0.418,-0.62C0.42,-0.616 0.421,-0.611 0.422,-0.604C0.423,-0.597 0.423,-0.589 0.423,-0.579Z" style="fill:rgb(99,96,96);fill-rule:nonzero;"/>
            </g>
            <g transform="matrix(96,0,0,96,1114.21,486.198)">
                <path d="M0.637,-0.323C0.637,-0.271 0.631,-0.224 0.618,-0.183C0.605,-0.141 0.585,-0.106 0.56,-0.077C0.534,-0.049 0.502,-0.027 0.464,-0.011C0.426,0.004 0.382,0.011 0.333,0.011C0.283,0.011 0.24,0.005 0.204,-0.008C0.167,-0.021 0.137,-0.041 0.112,-0.067C0.088,-0.093 0.07,-0.127 0.057,-0.167C0.045,-0.208 0.039,-0.256 0.039,-0.312C0.039,-0.363 0.046,-0.409 0.059,-0.45C0.072,-0.491 0.091,-0.526 0.117,-0.554C0.142,-0.583 0.174,-0.605 0.212,-0.62C0.25,-0.635 0.294,-0.643 0.344,-0.643C0.392,-0.643 0.434,-0.637 0.471,-0.624C0.508,-0.611 0.538,-0.592 0.563,-0.565C0.587,-0.539 0.606,-0.506 0.618,-0.466C0.631,-0.425 0.637,-0.378 0.637,-0.323ZM0.502,-0.316C0.502,-0.35 0.5,-0.38 0.495,-0.407C0.489,-0.434 0.481,-0.457 0.468,-0.477C0.455,-0.496 0.439,-0.511 0.418,-0.522C0.397,-0.532 0.371,-0.538 0.34,-0.538C0.308,-0.538 0.282,-0.532 0.261,-0.52C0.24,-0.508 0.222,-0.492 0.209,-0.472C0.196,-0.452 0.187,-0.429 0.182,-0.403C0.177,-0.376 0.174,-0.348 0.174,-0.318C0.174,-0.284 0.176,-0.253 0.182,-0.225C0.187,-0.198 0.196,-0.174 0.208,-0.155C0.22,-0.135 0.237,-0.12 0.258,-0.11C0.279,-0.1 0.305,-0.095 0.336,-0.095C0.368,-0.095 0.394,-0.101 0.416,-0.112C0.437,-0.124 0.454,-0.14 0.467,-0.16C0.48,-0.18 0.489,-0.204 0.494,-0.231C0.5,-0.258 0.502,-0.286 0.502,-0.316Z" style="fill:rgb(99,96,96);fill-rule:nonzero;"/>
            </g>
            <g transform="matrix(96,0,0,96,1179.13,486.198)">
                <path d="M0.538,-0.017C0.538,-0.013 0.537,-0.01 0.536,-0.008C0.534,-0.005 0.531,-0.003 0.526,-0.001C0.521,0 0.514,0.001 0.505,0.002C0.495,0.003 0.483,0.003 0.466,0.003C0.453,0.003 0.442,0.003 0.434,0.002C0.425,0.001 0.419,0 0.414,-0.002C0.41,-0.003 0.406,-0.006 0.404,-0.009C0.402,-0.011 0.401,-0.015 0.399,-0.019L0.343,-0.16C0.336,-0.176 0.329,-0.19 0.323,-0.202C0.316,-0.215 0.309,-0.225 0.301,-0.233C0.293,-0.241 0.284,-0.248 0.273,-0.252C0.263,-0.256 0.251,-0.258 0.237,-0.258L0.197,-0.258L0.197,-0.018C0.197,-0.014 0.196,-0.011 0.194,-0.009C0.192,-0.006 0.188,-0.004 0.184,-0.002C0.179,-0.001 0.172,0 0.164,0.001C0.156,0.002 0.146,0.003 0.133,0.003C0.12,0.003 0.11,0.002 0.102,0.001C0.094,0 0.087,-0.001 0.082,-0.002C0.077,-0.004 0.074,-0.006 0.072,-0.009C0.07,-0.011 0.069,-0.014 0.069,-0.018L0.069,-0.591C0.069,-0.606 0.073,-0.616 0.08,-0.622C0.087,-0.629 0.096,-0.632 0.107,-0.632L0.271,-0.632C0.287,-0.632 0.301,-0.632 0.312,-0.631C0.322,-0.63 0.332,-0.629 0.341,-0.628C0.366,-0.625 0.389,-0.619 0.409,-0.61C0.43,-0.601 0.447,-0.59 0.461,-0.575C0.475,-0.561 0.486,-0.545 0.494,-0.525C0.501,-0.506 0.505,-0.484 0.505,-0.458C0.505,-0.437 0.502,-0.418 0.497,-0.401C0.491,-0.383 0.484,-0.368 0.473,-0.354C0.463,-0.34 0.45,-0.328 0.435,-0.318C0.419,-0.308 0.402,-0.3 0.382,-0.294C0.392,-0.289 0.401,-0.284 0.409,-0.277C0.417,-0.271 0.425,-0.263 0.432,-0.254C0.44,-0.244 0.447,-0.234 0.453,-0.222C0.46,-0.21 0.466,-0.197 0.472,-0.182L0.525,-0.057C0.53,-0.045 0.534,-0.036 0.535,-0.03C0.537,-0.024 0.538,-0.02 0.538,-0.017ZM0.372,-0.445C0.372,-0.466 0.367,-0.484 0.358,-0.498C0.348,-0.512 0.333,-0.522 0.312,-0.528C0.305,-0.53 0.298,-0.531 0.289,-0.532C0.281,-0.533 0.27,-0.534 0.255,-0.534L0.197,-0.534L0.197,-0.354L0.263,-0.354C0.281,-0.354 0.297,-0.357 0.311,-0.361C0.324,-0.365 0.336,-0.372 0.345,-0.38C0.354,-0.388 0.361,-0.397 0.365,-0.408C0.37,-0.419 0.372,-0.432 0.372,-0.445Z" style="fill:rgb(99,96,96);fill-rule:nonzero;"/>
            </g>
            <g transform="matrix(96,0,0,96,1254.88,486.198)">
                <path d="M0.586,-0.048C0.59,-0.036 0.593,-0.027 0.594,-0.02C0.595,-0.013 0.593,-0.008 0.59,-0.005C0.586,-0.001 0.58,0.001 0.571,0.002C0.562,0.003 0.549,0.003 0.533,0.003C0.517,0.003 0.504,0.003 0.494,0.002C0.485,0.002 0.478,0.001 0.473,-0.001C0.468,-0.002 0.465,-0.004 0.463,-0.007C0.461,-0.009 0.459,-0.013 0.458,-0.017L0.416,-0.144L0.178,-0.144L0.138,-0.021C0.137,-0.016 0.135,-0.012 0.133,-0.009C0.131,-0.006 0.128,-0.003 0.123,-0.002C0.118,0 0.111,0.001 0.103,0.002C0.094,0.003 0.083,0.003 0.069,0.003C0.054,0.003 0.042,0.002 0.034,0.001C0.025,0 0.019,-0.002 0.016,-0.006C0.013,-0.009 0.012,-0.015 0.013,-0.021C0.014,-0.028 0.016,-0.037 0.02,-0.049L0.215,-0.609C0.217,-0.615 0.219,-0.619 0.222,-0.623C0.224,-0.626 0.228,-0.629 0.234,-0.631C0.24,-0.632 0.248,-0.634 0.258,-0.634C0.268,-0.635 0.281,-0.635 0.298,-0.635C0.317,-0.635 0.332,-0.635 0.344,-0.634C0.355,-0.634 0.364,-0.632 0.37,-0.631C0.377,-0.629 0.381,-0.626 0.384,-0.623C0.387,-0.619 0.389,-0.614 0.391,-0.608L0.586,-0.048ZM0.296,-0.511L0.296,-0.511L0.207,-0.243L0.386,-0.243L0.296,-0.511Z" style="fill:rgb(99,96,96);fill-rule:nonzero;"/>
            </g>
            <g transform="matrix(96,0,0,96,1313.05,486.198)">
                <path d="M0.416,-0.054C0.416,-0.044 0.416,-0.036 0.415,-0.029C0.414,-0.022 0.413,-0.017 0.411,-0.012C0.41,-0.008 0.407,-0.005 0.405,-0.003C0.403,-0.001 0.4,-0 0.396,-0L0.107,-0C0.096,-0 0.087,-0.003 0.08,-0.01C0.073,-0.016 0.069,-0.026 0.069,-0.041L0.069,-0.614C0.069,-0.618 0.07,-0.62 0.072,-0.623C0.074,-0.626 0.078,-0.628 0.083,-0.629C0.087,-0.631 0.094,-0.632 0.102,-0.633C0.111,-0.634 0.121,-0.635 0.133,-0.635C0.146,-0.635 0.156,-0.634 0.165,-0.633C0.173,-0.632 0.179,-0.631 0.184,-0.629C0.189,-0.628 0.192,-0.626 0.195,-0.623C0.197,-0.62 0.198,-0.618 0.198,-0.614L0.198,-0.106L0.396,-0.106C0.4,-0.106 0.403,-0.105 0.405,-0.103C0.407,-0.101 0.41,-0.099 0.411,-0.094C0.413,-0.09 0.414,-0.085 0.415,-0.078C0.416,-0.072 0.416,-0.063 0.416,-0.054Z" style="fill:rgb(99,96,96);fill-rule:nonzero;"/>
            </g>
            <g transform="matrix(96,0,0,96,1353.64,486.198)">
                <path d="M0.416,-0.054C0.416,-0.044 0.416,-0.036 0.415,-0.029C0.414,-0.022 0.413,-0.017 0.411,-0.012C0.41,-0.008 0.407,-0.005 0.405,-0.003C0.403,-0.001 0.4,-0 0.396,-0L0.107,-0C0.096,-0 0.087,-0.003 0.08,-0.01C0.073,-0.016 0.069,-0.026 0.069,-0.041L0.069,-0.614C0.069,-0.618 0.07,-0.62 0.072,-0.623C0.074,-0.626 0.078,-0.628 0.083,-0.629C0.087,-0.631 0.094,-0.632 0.102,-0.633C0.111,-0.634 0.121,-0.635 0.133,-0.635C0.146,-0.635 0.156,-0.634 0.165,-0.633C0.173,-0.632 0.179,-0.631 0.184,-0.629C0.189,-0.628 0.192,-0.626 0.195,-0.623C0.197,-0.62 0.198,-0.618 0.198,-0.614L0.198,-0.106L0.396,-0.106C0.4,-0.106 0.403,-0.105 0.405,-0.103C0.407,-0.101 0.41,-0.099 0.411,-0.094C0.413,-0.09 0.414,-0.085 0.415,-0.078C0.416,-0.072 0.416,-0.063 0.416,-0.054Z" style="fill:rgb(99,96,96);fill-rule:nonzero;"/>
            </g>
        </g>
    </g>
    <g transform="matrix(1.01717,0,0,1,-67.63,-82.7625)">
        <rect x="67.316" y="527.397" width="232.783" height="31.527"/>
    </g>
    <g transform="matrix(0.62519,0,0,0.734001,-56.1591,98.9475)">
        <g transform="matrix(284,0,0,284,84.8352,426.35)">
            <path d="M0.258,-0.079L0.271,-0.001C0.246,0.004 0.224,0.007 0.204,0.007C0.172,0.007 0.147,0.002 0.13,-0.008C0.112,-0.018 0.1,-0.032 0.093,-0.048C0.086,-0.065 0.082,-0.099 0.082,-0.152L0.082,-0.45L0.018,-0.45L0.018,-0.519L0.082,-0.519L0.082,-0.647L0.169,-0.7L0.169,-0.519L0.258,-0.519L0.258,-0.45L0.169,-0.45L0.169,-0.147C0.169,-0.122 0.171,-0.106 0.174,-0.099C0.177,-0.091 0.182,-0.086 0.189,-0.082C0.196,-0.077 0.206,-0.075 0.219,-0.075C0.229,-0.075 0.242,-0.076 0.258,-0.079Z" style="fill-rule:nonzero;"/>
        </g>
        <g transform="matrix(284,0,0,284,163.739,426.35)">
            <path d="M0.066,-0L0.066,-0.716L0.154,-0.716L0.154,-0.459C0.195,-0.507 0.247,-0.53 0.309,-0.53C0.347,-0.53 0.381,-0.523 0.409,-0.508C0.438,-0.492 0.458,-0.472 0.47,-0.445C0.482,-0.418 0.488,-0.379 0.488,-0.329L0.488,-0L0.4,-0L0.4,-0.329C0.4,-0.373 0.391,-0.405 0.372,-0.425C0.353,-0.445 0.326,-0.455 0.291,-0.455C0.265,-0.455 0.24,-0.448 0.218,-0.434C0.195,-0.421 0.178,-0.403 0.168,-0.379C0.159,-0.356 0.154,-0.324 0.154,-0.284L0.154,-0L0.066,-0Z" style="fill-rule:nonzero;"/>
        </g>
        <g transform="matrix(284,0,0,284,321.687,426.35)">
            <path d="M0.421,-0.167L0.512,-0.156C0.497,-0.103 0.471,-0.062 0.432,-0.032C0.393,-0.003 0.344,0.012 0.284,0.012C0.208,0.012 0.148,-0.012 0.103,-0.058C0.059,-0.105 0.037,-0.171 0.037,-0.255C0.037,-0.342 0.059,-0.41 0.104,-0.458C0.149,-0.506 0.207,-0.53 0.279,-0.53C0.348,-0.53 0.405,-0.507 0.449,-0.459C0.493,-0.412 0.515,-0.346 0.515,-0.26C0.515,-0.255 0.514,-0.247 0.514,-0.237L0.127,-0.237C0.131,-0.18 0.147,-0.136 0.176,-0.106C0.205,-0.076 0.241,-0.061 0.284,-0.061C0.316,-0.061 0.344,-0.069 0.367,-0.086C0.389,-0.103 0.408,-0.13 0.421,-0.167ZM0.132,-0.309L0.422,-0.309C0.418,-0.353 0.407,-0.385 0.389,-0.407C0.361,-0.441 0.324,-0.458 0.28,-0.458C0.239,-0.458 0.205,-0.444 0.178,-0.417C0.15,-0.39 0.135,-0.354 0.132,-0.309Z" style="fill-rule:nonzero;"/>
        </g>
    </g>
    <g transform="matrix(1.03517,0,0,0.974945,-293.475,-88.4486)">
        <g transform="matrix(284,0,0,284,274.803,319.946)">
            <path d="M0.041,-0.791L0.187,-0.791C0.284,-0.791 0.349,-0.787 0.384,-0.779C0.418,-0.772 0.446,-0.753 0.468,-0.722C0.489,-0.691 0.5,-0.642 0.5,-0.575C0.5,-0.513 0.492,-0.472 0.477,-0.451C0.462,-0.43 0.432,-0.417 0.387,-0.413C0.427,-0.403 0.455,-0.389 0.469,-0.372C0.483,-0.355 0.491,-0.34 0.495,-0.325C0.498,-0.311 0.5,-0.272 0.5,-0.208L0.5,-0L0.309,-0L0.309,-0.263C0.309,-0.305 0.306,-0.331 0.299,-0.341C0.292,-0.351 0.275,-0.356 0.247,-0.356L0.247,-0L0.041,-0L0.041,-0.791ZM0.247,-0.655L0.247,-0.479C0.27,-0.479 0.286,-0.483 0.295,-0.489C0.304,-0.495 0.309,-0.516 0.309,-0.551L0.309,-0.594C0.309,-0.619 0.305,-0.636 0.296,-0.644C0.287,-0.651 0.27,-0.655 0.247,-0.655Z" style="fill-rule:nonzero;"/>
        </g>
        <g transform="matrix(284,0,0,284,427.758,319.946)">
            <path d="M0.396,-0.791L0.514,-0L0.303,-0L0.293,-0.142L0.219,-0.142L0.207,-0L-0.006,-0L0.099,-0.791L0.396,-0.791ZM0.287,-0.282C0.277,-0.372 0.266,-0.482 0.256,-0.614C0.235,-0.463 0.222,-0.352 0.217,-0.282L0.287,-0.282Z" style="fill-rule:nonzero;"/>
        </g>
        <g transform="matrix(284,0,0,284,571.976,319.946)">
            <rect x="0.041" y="-0.791" width="0.206" height="0.791" style="fill-rule:nonzero;"/>
        </g>
        <g transform="matrix(284,0,0,284,653.793,319.946)">
            <path d="M0.477,-0.551L0.286,-0.551L0.286,-0.61C0.286,-0.637 0.283,-0.655 0.278,-0.662C0.273,-0.67 0.265,-0.673 0.254,-0.673C0.242,-0.673 0.232,-0.668 0.226,-0.658C0.219,-0.648 0.216,-0.633 0.216,-0.612C0.216,-0.586 0.22,-0.566 0.227,-0.553C0.234,-0.539 0.253,-0.523 0.285,-0.504C0.377,-0.45 0.434,-0.405 0.458,-0.371C0.482,-0.336 0.494,-0.28 0.494,-0.202C0.494,-0.146 0.487,-0.104 0.474,-0.078C0.461,-0.051 0.435,-0.029 0.397,-0.01C0.36,0.008 0.316,0.017 0.266,0.017C0.211,0.017 0.164,0.006 0.125,-0.015C0.086,-0.035 0.06,-0.062 0.048,-0.094C0.036,-0.126 0.03,-0.172 0.03,-0.231L0.03,-0.283L0.221,-0.283L0.221,-0.187C0.221,-0.157 0.224,-0.138 0.229,-0.13C0.235,-0.121 0.244,-0.117 0.258,-0.117C0.271,-0.117 0.282,-0.123 0.288,-0.133C0.295,-0.144 0.298,-0.16 0.298,-0.181C0.298,-0.228 0.292,-0.258 0.279,-0.272C0.266,-0.287 0.234,-0.311 0.183,-0.344C0.132,-0.378 0.098,-0.403 0.082,-0.418C0.065,-0.433 0.051,-0.454 0.04,-0.481C0.029,-0.508 0.024,-0.543 0.024,-0.585C0.024,-0.646 0.032,-0.69 0.047,-0.718C0.063,-0.746 0.088,-0.768 0.122,-0.783C0.157,-0.799 0.198,-0.807 0.247,-0.807C0.3,-0.807 0.346,-0.799 0.384,-0.781C0.421,-0.764 0.446,-0.742 0.458,-0.716C0.47,-0.69 0.477,-0.645 0.477,-0.583L0.477,-0.551Z" style="fill-rule:nonzero;"/>
        </g>
        <g transform="matrix(284,0,0,284,800.646,319.946)">
            <rect x="0.041" y="-0.791" width="0.206" height="0.791" style="fill-rule:nonzero;"/>
        </g>
        <g transform="matrix(284,0,0,284,882.463,319.946)">
            <path d="M0.5,-0.791L0.5,-0L0.32,-0L0.213,-0.359L0.213,-0L0.041,-0L0.041,-0.791L0.213,-0.791L0.328,-0.435L0.328,-0.791L0.5,-0.791Z" style="fill-rule:nonzero;"/>
        </g>
        <g transform="matrix(284,0,0,284,1036.25,319.946)">
            <path d="M0.513,-0.5L0.307,-0.5L0.307,-0.571C0.307,-0.617 0.305,-0.645 0.301,-0.656C0.297,-0.668 0.288,-0.673 0.273,-0.673C0.261,-0.673 0.252,-0.668 0.248,-0.659C0.243,-0.649 0.241,-0.624 0.241,-0.583L0.241,-0.204C0.241,-0.169 0.243,-0.145 0.248,-0.134C0.252,-0.123 0.261,-0.117 0.275,-0.117C0.29,-0.117 0.3,-0.124 0.305,-0.136C0.311,-0.149 0.313,-0.174 0.313,-0.21L0.313,-0.304L0.272,-0.304L0.272,-0.424L0.513,-0.424L0.513,-0L0.383,-0L0.364,-0.057C0.35,-0.032 0.333,-0.014 0.311,-0.002C0.29,0.01 0.265,0.017 0.236,0.017C0.201,0.017 0.169,0.008 0.139,-0.009C0.109,-0.025 0.086,-0.046 0.07,-0.071C0.055,-0.096 0.045,-0.122 0.041,-0.149C0.037,-0.176 0.035,-0.217 0.035,-0.271L0.035,-0.506C0.035,-0.581 0.039,-0.636 0.047,-0.67C0.056,-0.705 0.079,-0.736 0.117,-0.764C0.156,-0.793 0.206,-0.807 0.267,-0.807C0.327,-0.807 0.377,-0.795 0.417,-0.77C0.457,-0.745 0.483,-0.716 0.495,-0.682C0.507,-0.648 0.513,-0.598 0.513,-0.534L0.513,-0.5Z" style="fill-rule:nonzero;"/>
        </g>
    </g>
    <g transform="matrix(1,0,0,0.960118,-11.6526,167.317)">
        <g transform="matrix(284,0,0,284,274.803,319.946)">
            <path d="M0.041,-0.791L0.389,-0.791L0.389,-0.632L0.247,-0.632L0.247,-0.482L0.374,-0.482L0.374,-0.332L0.247,-0.332L0.247,-0L0.041,-0L0.041,-0.791Z" style="fill-rule:nonzero;"/>
        </g>
        <g transform="matrix(284,0,0,284,387.82,319.946)">
            <path d="M0.247,-0.791L0.247,-0.158L0.372,-0.158L0.372,-0L0.041,-0L0.041,-0.791L0.247,-0.791Z" style="fill-rule:nonzero;"/>
        </g>
        <g transform="matrix(284,0,0,284,491.547,319.946)">
            <path d="M0.511,-0.328C0.511,-0.248 0.509,-0.192 0.505,-0.159C0.501,-0.126 0.49,-0.096 0.47,-0.068C0.45,-0.041 0.424,-0.02 0.39,-0.005C0.357,0.009 0.318,0.017 0.273,0.017C0.231,0.017 0.193,0.01 0.159,-0.004C0.125,-0.018 0.098,-0.039 0.078,-0.066C0.057,-0.094 0.045,-0.124 0.041,-0.157C0.037,-0.189 0.035,-0.246 0.035,-0.328L0.035,-0.463C0.035,-0.542 0.037,-0.599 0.041,-0.632C0.045,-0.665 0.056,-0.695 0.076,-0.722C0.096,-0.75 0.122,-0.771 0.156,-0.785C0.189,-0.8 0.228,-0.807 0.273,-0.807C0.315,-0.807 0.353,-0.8 0.387,-0.786C0.421,-0.773 0.448,-0.752 0.468,-0.724C0.489,-0.696 0.501,-0.666 0.505,-0.634C0.509,-0.601 0.511,-0.544 0.511,-0.463L0.511,-0.328ZM0.305,-0.587C0.305,-0.624 0.303,-0.648 0.299,-0.658C0.295,-0.668 0.287,-0.673 0.274,-0.673C0.263,-0.673 0.255,-0.669 0.249,-0.661C0.244,-0.653 0.241,-0.628 0.241,-0.587L0.241,-0.218C0.241,-0.172 0.243,-0.144 0.246,-0.133C0.25,-0.123 0.259,-0.117 0.272,-0.117C0.286,-0.117 0.295,-0.123 0.299,-0.136C0.303,-0.148 0.305,-0.178 0.305,-0.224L0.305,-0.587Z" style="fill-rule:nonzero;"/>
        </g>
        <g transform="matrix(284,0,0,284,646.721,319.946)">
            <path d="M0.511,-0.328C0.511,-0.248 0.509,-0.192 0.505,-0.159C0.501,-0.126 0.49,-0.096 0.47,-0.068C0.45,-0.041 0.424,-0.02 0.39,-0.005C0.357,0.009 0.318,0.017 0.273,0.017C0.231,0.017 0.193,0.01 0.159,-0.004C0.125,-0.018 0.098,-0.039 0.078,-0.066C0.057,-0.094 0.045,-0.124 0.041,-0.157C0.037,-0.189 0.035,-0.246 0.035,-0.328L0.035,-0.463C0.035,-0.542 0.037,-0.599 0.041,-0.632C0.045,-0.665 0.056,-0.695 0.076,-0.722C0.096,-0.75 0.122,-0.771 0.156,-0.785C0.189,-0.8 0.228,-0.807 0.273,-0.807C0.315,-0.807 0.353,-0.8 0.387,-0.786C0.421,-0.773 0.448,-0.752 0.468,-0.724C0.489,-0.696 0.501,-0.666 0.505,-0.634C0.509,-0.601 0.511,-0.544 0.511,-0.463L0.511,-0.328ZM0.305,-0.587C0.305,-0.624 0.303,-0.648 0.299,-0.658C0.295,-0.668 0.287,-0.673 0.274,-0.673C0.263,-0.673 0.255,-0.669 0.249,-0.661C0.244,-0.653 0.241,-0.628 0.241,-0.587L0.241,-0.218C0.241,-0.172 0.243,-0.144 0.246,-0.133C0.25,-0.123 0.259,-0.117 0.272,-0.117C0.286,-0.117 0.295,-0.123 0.299,-0.136C0.303,-0.148 0.305,-0.178 0.305,-0.224L0.305,-0.587Z" style="fill-rule:nonzero;"/>
        </g>
        <g transform="matrix(284,0,0,284,801.894,319.946)">
            <path d="M0.041,-0.791L0.187,-0.791C0.284,-0.791 0.349,-0.787 0.384,-0.779C0.418,-0.772 0.446,-0.753 0.468,-0.722C0.489,-0.691 0.5,-0.642 0.5,-0.575C0.5,-0.513 0.492,-0.472 0.477,-0.451C0.462,-0.43 0.432,-0.417 0.387,-0.413C0.427,-0.403 0.455,-0.389 0.469,-0.372C0.483,-0.355 0.491,-0.34 0.495,-0.325C0.498,-0.311 0.5,-0.272 0.5,-0.208L0.5,-0L0.309,-0L0.309,-0.263C0.309,-0.305 0.306,-0.331 0.299,-0.341C0.292,-0.351 0.275,-0.356 0.247,-0.356L0.247,-0L0.041,-0L0.041,-0.791ZM0.247,-0.655L0.247,-0.479C0.27,-0.479 0.286,-0.483 0.295,-0.489C0.304,-0.495 0.309,-0.516 0.309,-0.551L0.309,-0.594C0.309,-0.619 0.305,-0.636 0.296,-0.644C0.287,-0.651 0.27,-0.655 0.247,-0.655Z" style="fill-rule:nonzero;"/>
        </g>
    </g>
</svg>
